<svg version="1.1" xmlns="http://www.w3.org/2000/svg" xmlns:xlink="http://www.w3.org/1999/xlink" width="714" height="836"><defs/><g><g transform="translate(2,10) scale(1,1)"><path fill="none" stroke="#000000" d="M 8 0 L 702 0 L 702 816 L 8 816 L 8 0" stroke-miterlimit="10"/></g><g transform="translate(2,10) scale(1,1)"><path fill="#ffffff" stroke="none" d="M 8 0 L 8 22 L 215.51513671875 22 L 226.51513671875 11 L 226.51513671875 0 L 8 0"/></g><g transform="translate(2,10) scale(1,1)"><path fill="none" stroke="#000000" d="M 8 0 L 8 22 L 215.51513671875 22 L 226.51513671875 11 L 226.51513671875 0 L 8 0 L 8 0" stroke-miterlimit="10"/></g><g transform="translate(2,10) scale(1,1)"><g><path fill="none" stroke="none"/><text fill="#000000" stroke="none" font-family="Arial" font-size="13px" font-style="normal" font-weight="normal" text-decoration="none" x="78.97900390625" y="17.5">DataBase authenticate</text></g></g><g transform="translate(2,10) scale(1,1)"><g><path fill="none" stroke="none"/><text fill="#000000" stroke="none" font-family="Arial" font-size="13px" font-style="normal" font-weight="bold" text-decoration="none" x="13" y="17.5">interaction</text></g></g><g transform="translate(2,10) scale(1,1)"><rect fill="#C0C0C0" stroke="none" x="191" y="47" width="203.25341796875" height="39" opacity="0.2"/></g><g transform="translate(2,10) scale(1,1)"><rect fill="#ffffff" stroke="none" x="184" y="40" width="203.25341796875" height="39"/></g><g transform="translate(2,10) scale(1,1)"><path fill="none" stroke="#000000" d="M 184 40 L 387.25341796875 40 L 387.25341796875 79 L 184 79 L 184 40 Z Z" stroke-miterlimit="10"/></g><g transform="translate(2,10) scale(1,1)"><g><path fill="none" stroke="none"/><text fill="#000000" stroke="none" font-family="Arial" font-size="13px" font-style="normal" font-weight="bold" text-decoration="none" x="198.552734375" y="59.5">db: swe.server.data.DataBase</text></g></g><g transform="translate(2,10) scale(1,1)"><path fill="none" stroke="#000000" d="M 286.5 80 L 286.5 796" stroke-miterlimit="10" stroke-dasharray="3"/></g><g transform="translate(2,10) scale(1,1)"><path fill="none" stroke="#000000" d="M 104 144 L 600 144 L 600 360 L 104 360 L 104 144" stroke-miterlimit="10"/></g><g transform="translate(2,10) scale(1,1)"><path fill="#ffffff" stroke="none" d="M 104 144 L 104 166 L 138.07177734375 166 L 149.07177734375 155 L 149.07177734375 144 L 104 144"/></g><g transform="translate(2,10) scale(1,1)"><path fill="none" stroke="#000000" d="M 104 144 L 104 166 L 138.07177734375 166 L 149.07177734375 155 L 149.07177734375 144 L 104 144 L 104 144" stroke-miterlimit="10"/></g><g transform="translate(2,10) scale(1,1)"><g><path fill="none" stroke="none"/><text fill="#000000" stroke="none" font-family="Arial" font-size="13px" font-style="normal" font-weight="bold" text-decoration="none" x="109" y="161.5">opt</text></g></g><g transform="translate(2,10) scale(1,1)"><g><path fill="none" stroke="none"/><text fill="#000000" stroke="none" font-family="Arial" font-size="13px" font-style="normal" font-weight="normal" text-decoration="none" x="123.5" y="194.5">[!(clazz.equals(Operator.class) || clazz.equals(Deliverer.class))]</text></g></g><g transform="translate(2,10) scale(1,1)"><rect fill="#C0C0C0" stroke="none" x="415" y="235" width="179.36083984375" height="39" opacity="0.2"/></g><g transform="translate(2,10) scale(1,1)"><rect fill="#ffffff" stroke="none" x="408" y="228" width="179.36083984375" height="39"/></g><g transform="translate(2,10) scale(1,1)"><path fill="none" stroke="#000000" d="M 408 228 L 587.36083984375 228 L 587.36083984375 267 L 408 267 L 408 228 Z Z" stroke-miterlimit="10"/></g><g transform="translate(2,10) scale(1,1)"><g><path fill="none" stroke="none"/><text fill="#000000" stroke="none" font-family="Arial" font-size="13px" font-style="normal" font-weight="bold" text-decoration="none" x="423.971435546875" y="247.5">IllegalArgumentException</text></g></g><g transform="translate(2,10) scale(1,1)"><path fill="none" stroke="#000000" d="M 498.5 268 L 498.5 366" stroke-miterlimit="10" stroke-dasharray="3"/></g><g transform="translate(2,10) scale(1,1)"><rect fill="#ffffff" stroke="none" x="8" y="106.5" width="14" height="14"/></g><g transform="translate(2,10) scale(1,1)"><path fill="none" stroke="#000000" d="M 8 106.5 L 22 106.5 L 22 120.5 L 8 120.5 L 8 106.5 Z Z" stroke-miterlimit="10"/></g><g transform="translate(2,10) scale(1,1)"><path fill="#000000" stroke="none" d="M 8 591.5 C 8 587.6340064 11.1340064 584.5 15 584.5 C 18.8659936 584.5 22 587.6340064 22 591.5 C 22 595.3659936 18.8659936 598.5 15 598.5 C 11.1340064 598.5 8 595.3659936 8 591.5 Z"/></g><g transform="translate(2,10) scale(1,1)"><path fill="#000000" stroke="none" d="M 8 335.5 C 8 331.6340064 11.1340064 328.5 15 328.5 C 18.8659936 328.5 22 331.6340064 22 335.5 C 22 339.3659936 18.8659936 342.5 15 342.5 C 11.1340064 342.5 8 339.3659936 8 335.5 Z"/></g><g transform="translate(2,10) scale(1,1)"><path fill="none" stroke="#000000" d="M 104 376 L 600 376 L 600 664 L 104 664 L 104 376" stroke-miterlimit="10"/></g><g transform="translate(2,10) scale(1,1)"><path fill="#ffffff" stroke="none" d="M 104 376 L 104 398 L 171.2763671875 398 L 182.2763671875 387 L 182.2763671875 376 L 104 376"/></g><g transform="translate(2,10) scale(1,1)"><path fill="none" stroke="#000000" d="M 104 376 L 104 398 L 171.2763671875 398 L 182.2763671875 387 L 182.2763671875 376 L 104 376 L 104 376" stroke-miterlimit="10"/></g><g transform="translate(2,10) scale(1,1)"><g><path fill="none" stroke="none"/><text fill="#000000" stroke="none" font-family="Arial" font-size="13px" font-style="normal" font-weight="normal" text-decoration="none" x="151.83544921875" y="393.5">try</text></g></g><g transform="translate(2,10) scale(1,1)"><g><path fill="none" stroke="none"/><text fill="#000000" stroke="none" font-family="Arial" font-size="13px" font-style="normal" font-weight="bold" text-decoration="none" x="109" y="393.5">critical</text></g></g><g transform="translate(2,10) scale(1,1)"><path fill="none" stroke="#000000" d="M 112 464 L 592 464 L 592 632 L 112 632 L 112 464" stroke-miterlimit="10"/></g><g transform="translate(2,10) scale(1,1)"><path fill="#ffffff" stroke="none" d="M 112 464 L 112 486 L 146.07177734375 486 L 157.07177734375 475 L 157.07177734375 464 L 112 464"/></g><g transform="translate(2,10) scale(1,1)"><path fill="none" stroke="#000000" d="M 112 464 L 112 486 L 146.07177734375 486 L 157.07177734375 475 L 157.07177734375 464 L 112 464 L 112 464" stroke-miterlimit="10"/></g><g transform="translate(2,10) scale(1,1)"><g><path fill="none" stroke="none"/><text fill="#000000" stroke="none" font-family="Arial" font-size="13px" font-style="normal" font-weight="bold" text-decoration="none" x="117" y="481.5">opt</text></g></g><g transform="translate(2,10) scale(1,1)"><g><path fill="none" stroke="none"/><text fill="#000000" stroke="none" font-family="Arial" font-size="13px" font-style="normal" font-weight="normal" text-decoration="none" x="131.5" y="514.5">[user == null || !checkPassword(password, user.password)]</text></g></g><g transform="translate(2,10) scale(1,1)"><path fill="none" stroke="#000000" d="M 112 553 L 592 553" stroke-miterlimit="10" stroke-dasharray="10,3"/></g><g transform="translate(2,10) scale(1,1)"><g><path fill="none" stroke="none"/><text fill="#000000" stroke="none" font-family="Arial" font-size="13px" font-style="normal" font-weight="normal" text-decoration="none" x="131.5" y="580.5">[else]</text></g></g><g transform="translate(2,10) scale(1,1)"><path fill="#000000" stroke="none" d="M 8 527.5 C 8 523.6340064 11.1340064 520.5 15 520.5 C 18.8659936 520.5 22 523.6340064 22 527.5 C 22 531.3659936 18.8659936 534.5 15 534.5 C 11.1340064 534.5 8 531.3659936 8 527.5 Z"/></g><g transform="translate(2,10) scale(1,1)"><path fill="none" stroke="#000000" d="M 104 664 L 600 664 L 600 808 L 104 808 L 104 664" stroke-miterlimit="10"/></g><g transform="translate(2,10) scale(1,1)"><path fill="#ffffff" stroke="none" d="M 104 664 L 104 686 L 169.1435546875 686 L 180.1435546875 675 L 180.1435546875 664 L 104 664"/></g><g transform="translate(2,10) scale(1,1)"><path fill="none" stroke="#000000" d="M 104 664 L 104 686 L 169.1435546875 686 L 180.1435546875 675 L 180.1435546875 664 L 104 664 L 104 664" stroke-miterlimit="10"/></g><g transform="translate(2,10) scale(1,1)"><g><path fill="none" stroke="none"/><text fill="#000000" stroke="none" font-family="Arial" font-size="13px" font-style="normal" font-weight="normal" text-decoration="none" x="133.07177734375" y="681.5">catch</text></g></g><g transform="translate(2,10) scale(1,1)"><g><path fill="none" stroke="none"/><text fill="#000000" stroke="none" font-family="Arial" font-size="13px" font-style="normal" font-weight="bold" text-decoration="none" x="109" y="681.5">opt</text></g></g><g transform="translate(2,10) scale(1,1)"><g><path fill="none" stroke="none"/><text fill="#000000" stroke="none" font-family="Arial" font-size="13px" font-style="normal" font-weight="normal" text-decoration="none" x="123.5" y="714.5">[HibernateException]</text></g></g><g transform="translate(2,10) scale(1,1)"><rect fill="#C0C0C0" stroke="none" x="415" y="699" width="168" height="39" opacity="0.2"/></g><g transform="translate(2,10) scale(1,1)"><rect fill="#ffffff" stroke="none" x="408" y="692" width="168" height="39"/></g><g transform="translate(2,10) scale(1,1)"><path fill="none" stroke="#000000" d="M 408 692 L 576 692 L 576 731 L 408 731 L 408 692 Z Z" stroke-miterlimit="10"/></g><g transform="translate(2,10) scale(1,1)"><g><path fill="none" stroke="none"/><text fill="#000000" stroke="none" font-family="Arial" font-size="13px" font-style="normal" font-weight="bold" text-decoration="none" x="435.27099609375" y="711.5">HibernateException</text></g></g><g transform="translate(2,10) scale(1,1)"><path fill="none" stroke="#000000" d="M 493.5 732 L 493.5 811" stroke-miterlimit="10" stroke-dasharray="3"/></g><g transform="translate(2,10) scale(1,1)"><path fill="#000000" stroke="none" d="M 8 780.5 C 8 776.6340064 11.1340064 773.5 15 773.5 C 18.8659936 773.5 22 776.6340064 22 780.5 C 22 784.3659936 18.8659936 787.5 15 787.5 C 11.1340064 787.5 8 784.3659936 8 780.5 Z"/></g><g transform="translate(2,10) scale(1,1)"><path fill="none" stroke="#000000" d="M 22 114 L 279 114" stroke-miterlimit="10"/></g><g transform="translate(2,10) scale(1,1)"><path fill="none" stroke="#000000" d="M 268.83732514237585 118.20951775601598 L 279 114 L 268.83732514237585 109.79048224398402" stroke-miterlimit="10"/></g><g transform="translate(2,10) scale(1,1)"><g><path fill="none" stroke="none"/><text fill="#000000" stroke="none" font-family="Arial" font-size="13px" font-style="normal" font-weight="normal" text-decoration="none" x="34" y="111">1 : authenticate(userId, password, clazz)</text></g></g><g transform="translate(2,10) scale(1,1)"><rect fill="#ffffff" stroke="none" x="279" y="114" width="13" height="646"/></g><g transform="translate(2,10) scale(1,1)"><path fill="none" stroke="#000000" d="M 279 114 L 292 114 L 292 760 L 279 760 L 279 114 Z Z" stroke-miterlimit="10"/></g><g transform="translate(2,10) scale(1,1)"><path fill="none" stroke="#000000" d="M 292 248 L 408 248" stroke-miterlimit="10" stroke-dasharray="3"/></g><g transform="translate(2,10) scale(1,1)"><path fill="none" stroke="#000000" d="M 397.83732514237585 252.209517756016 L 408 248 L 397.83732514237585 243.790482243984" stroke-miterlimit="10"/></g><g transform="translate(2,10) scale(1,1)"><g><path fill="none" stroke="none"/><text fill="#000000" stroke="none" font-family="Arial" font-size="13px" font-style="normal" font-weight="normal" text-decoration="none" x="335" y="237">2 : new</text></g></g><g transform="translate(2,10) scale(1,1)"><g><path fill="none" stroke="none"/><text fill="#000000" stroke="none" font-family="Arial" font-size="13px" font-style="normal" font-weight="normal" text-decoration="none" x="330" y="221">«create»</text></g></g><g transform="translate(2,10) scale(1,1)"><path fill="none" stroke="#000000" d="M 292 312 L 491 312" stroke-miterlimit="10"/></g><g transform="translate(2,10) scale(1,1)"><path fill="none" stroke="#000000" d="M 480.83732514237585 316.209517756016 L 491 312 L 480.83732514237585 307.790482243984" stroke-miterlimit="10"/></g><g transform="translate(2,10) scale(1,1)"><g><path fill="none" stroke="none"/><text fill="#000000" stroke="none" font-family="Arial" font-size="13px" font-style="normal" font-weight="normal" text-decoration="none" x="367" y="309">3 : throw</text></g></g><g transform="translate(2,10) scale(1,1)"><rect fill="#ffffff" stroke="none" x="491" y="312" width="13" height="28"/></g><g transform="translate(2,10) scale(1,1)"><path fill="none" stroke="#000000" d="M 491 312 L 504 312 L 504 340 L 491 340 L 491 312 Z Z" stroke-miterlimit="10"/></g><g transform="translate(2,10) scale(1,1)"><path fill="none" stroke="#000000" d="M 491 336 L 22 336" stroke-miterlimit="10" stroke-dasharray="3"/></g><g transform="translate(2,10) scale(1,1)"><path fill="none" stroke="#000000" d="M 32.162674857624154 331.790482243984 L 22 336 L 32.162674857624154 340.209517756016" stroke-miterlimit="10"/></g><g transform="translate(2,10) scale(1,1)"><g><path fill="none" stroke="none"/><text fill="#000000" stroke="none" font-family="Arial" font-size="13px" font-style="normal" font-weight="normal" text-decoration="none" x="198" y="353">4 : throw(exception)</text></g></g><g transform="translate(2,10) scale(1,1)"><path fill="none" stroke="#000000" d="M 279 528 L 22 528" stroke-miterlimit="10" stroke-dasharray="3"/></g><g transform="translate(2,10) scale(1,1)"><path fill="none" stroke="#000000" d="M 32.162674857624154 523.790482243984 L 22 528 L 32.162674857624154 532.209517756016" stroke-miterlimit="10"/></g><g transform="translate(2,10) scale(1,1)"><g><path fill="none" stroke="none"/><text fill="#000000" stroke="none" font-family="Arial" font-size="13px" font-style="normal" font-weight="normal" text-decoration="none" x="130" y="545">5 : null</text></g></g><g transform="translate(2,10) scale(1,1)"><path fill="none" stroke="#000000" d="M 279 592 L 22 592" stroke-miterlimit="10" stroke-dasharray="3"/></g><g transform="translate(2,10) scale(1,1)"><path fill="none" stroke="#000000" d="M 32.162674857624154 587.790482243984 L 22 592 L 32.162674857624154 596.209517756016" stroke-miterlimit="10"/></g><g transform="translate(2,10) scale(1,1)"><g><path fill="none" stroke="none"/><text fill="#000000" stroke="none" font-family="Arial" font-size="13px" font-style="normal" font-weight="normal" text-decoration="none" x="128" y="609">6 : user</text></g></g><g transform="translate(2,10) scale(1,1)"><path fill="none" stroke="#000000" d="M 292 712 L 408 712" stroke-miterlimit="10" stroke-dasharray="3"/></g><g transform="translate(2,10) scale(1,1)"><path fill="none" stroke="#000000" d="M 397.83732514237585 716.209517756016 L 408 712 L 397.83732514237585 707.790482243984" stroke-miterlimit="10"/></g><g transform="translate(2,10) scale(1,1)"><g><path fill="none" stroke="none"/><text fill="#000000" stroke="none" font-family="Arial" font-size="13px" font-style="normal" font-weight="normal" text-decoration="none" x="330" y="709">7 : new</text></g></g><g transform="translate(2,10) scale(1,1)"><g><path fill="none" stroke="none"/><text fill="#000000" stroke="none" font-family="Arial" font-size="13px" font-style="normal" font-weight="normal" text-decoration="none" x="325" y="694">«create»</text></g></g><g transform="translate(2,10) scale(1,1)"><path fill="none" stroke="#000000" d="M 292 754 L 486 754" stroke-miterlimit="10"/></g><g transform="translate(2,10) scale(1,1)"><path fill="none" stroke="#000000" d="M 475.83732514237585 758.209517756016 L 486 754 L 475.83732514237585 749.790482243984" stroke-miterlimit="10"/></g><g transform="translate(2,10) scale(1,1)"><g><path fill="none" stroke="none"/><text fill="#000000" stroke="none" font-family="Arial" font-size="13px" font-style="normal" font-weight="normal" text-decoration="none" x="365" y="751">8 : throw</text></g></g><g transform="translate(2,10) scale(1,1)"><rect fill="#ffffff" stroke="none" x="486" y="754" width="13" height="28"/></g><g transform="translate(2,10) scale(1,1)"><path fill="none" stroke="#000000" d="M 486 754 L 499 754 L 499 782 L 486 782 L 486 754 Z Z" stroke-miterlimit="10"/></g><g transform="translate(2,10) scale(1,1)"><path fill="none" stroke="#000000" d="M 486 781 L 22 781" stroke-miterlimit="10" stroke-dasharray="3"/></g><g transform="translate(2,10) scale(1,1)"><path fill="none" stroke="#000000" d="M 32.162674857624154 776.790482243984 L 22 781 L 32.162674857624154 785.209517756016" stroke-miterlimit="10"/></g><g transform="translate(2,10) scale(1,1)"><g><path fill="none" stroke="none"/><text fill="#000000" stroke="none" font-family="Arial" font-size="13px" font-style="normal" font-weight="normal" text-decoration="none" x="196" y="798">9 : throw(exception)</text></g></g><g transform="translate(2,10) scale(1,1)"><rect fill="#ffffff" stroke="none" x="256" y="384" width="208.41162109375" height="64"/></g><g transform="translate(2,10) scale(1,1)"><path fill="none" stroke="#000000" d="M 256 384 L 464.41162109375 384 L 464.41162109375 448 L 256 448 L 256 384 Z Z" stroke-miterlimit="10"/></g><g transform="translate(2,10) scale(1,1)"><path fill="none" stroke="#000000" d="M 256 384 L 256 406 L 281.1708984375 406 L 292.1708984375 395 L 292.1708984375 384 L 256 384 L 256 384" stroke-miterlimit="10"/></g><g transform="translate(2,10) scale(1,1)"><g><path fill="none" stroke="none"/><text fill="#000000" stroke="none" font-family="Arial" font-size="13px" font-style="normal" font-weight="normal" text-decoration="none" x="261.94091796875" y="422.5">Interaction get(clazz, userId): user</text></g></g><g transform="translate(2,10) scale(1,1)"><g><path fill="none" stroke="none"/><text fill="#000000" stroke="none" font-family="Arial" font-size="13px" font-style="normal" font-weight="normal" text-decoration="none" x="261" y="401.5">ref</text></g></g></g></svg>