<svg version="1.1" xmlns="http://www.w3.org/2000/svg" xmlns:xlink="http://www.w3.org/1999/xlink" width="714" height="511"><defs/><g><g transform="translate(10,5) scale(1,1)"><path fill="none" stroke="#000000" d="M 0 5 L 694 5 L 694 496 L 0 496 L 0 5" stroke-miterlimit="10"/></g><g transform="translate(10,5) scale(1,1)"><path fill="#ffffff" stroke="none" d="M 0 5 L 0 27 L 205.3251953125 27 L 216.3251953125 16 L 216.3251953125 5 L 0 5"/></g><g transform="translate(10,5) scale(1,1)"><path fill="none" stroke="#000000" d="M 0 5 L 0 27 L 205.3251953125 27 L 216.3251953125 16 L 216.3251953125 5 L 0 5 L 0 5" stroke-miterlimit="10"/></g><g transform="translate(10,5) scale(1,1)"><g><path fill="none" stroke="none"/><text fill="#000000" stroke="none" font-family="Arial" font-size="13px" font-style="normal" font-weight="normal" text-decoration="none" x="70.97900390625" y="22.5">DataBase addDelivery</text></g></g><g transform="translate(10,5) scale(1,1)"><g><path fill="none" stroke="none"/><text fill="#000000" stroke="none" font-family="Arial" font-size="13px" font-style="normal" font-weight="bold" text-decoration="none" x="5" y="22.5">interaction</text></g></g><g transform="translate(10,5) scale(1,1)"><rect fill="#C0C0C0" stroke="none" x="119" y="47" width="203.25341796875" height="39" opacity="0.2"/></g><g transform="translate(10,5) scale(1,1)"><rect fill="#ffffff" stroke="none" x="112" y="40" width="203.25341796875" height="39"/></g><g transform="translate(10,5) scale(1,1)"><path fill="none" stroke="#000000" d="M 112 40 L 315.25341796875 40 L 315.25341796875 79 L 112 79 L 112 40 Z Z" stroke-miterlimit="10"/></g><g transform="translate(10,5) scale(1,1)"><g><path fill="none" stroke="none"/><text fill="#000000" stroke="none" font-family="Arial" font-size="13px" font-style="normal" font-weight="bold" text-decoration="none" x="126.552734375" y="59.5">db: swe.server.data.DataBase</text></g></g><g transform="translate(10,5) scale(1,1)"><path fill="none" stroke="#000000" d="M 214.5 80 L 214.5 470" stroke-miterlimit="10" stroke-dasharray="3"/></g><g transform="translate(10,5) scale(1,1)"><rect fill="#ffffff" stroke="none" x="16" y="105.5" width="14" height="14"/></g><g transform="translate(10,5) scale(1,1)"><path fill="none" stroke="#000000" d="M 16 105.5 L 30 105.5 L 30 119.5 L 16 119.5 L 16 105.5 Z Z" stroke-miterlimit="10"/></g><g transform="translate(10,5) scale(1,1)"><path fill="none" stroke="#000000" d="M 64 128 L 520 128 L 520 336 L 64 336 L 64 128" stroke-miterlimit="10"/></g><g transform="translate(10,5) scale(1,1)"><path fill="#ffffff" stroke="none" d="M 64 128 L 64 150 L 131.2763671875 150 L 142.2763671875 139 L 142.2763671875 128 L 64 128"/></g><g transform="translate(10,5) scale(1,1)"><path fill="none" stroke="#000000" d="M 64 128 L 64 150 L 131.2763671875 150 L 142.2763671875 139 L 142.2763671875 128 L 64 128 L 64 128" stroke-miterlimit="10"/></g><g transform="translate(10,5) scale(1,1)"><g><path fill="none" stroke="none"/><text fill="#000000" stroke="none" font-family="Arial" font-size="13px" font-style="normal" font-weight="normal" text-decoration="none" x="111.83544921875" y="145.5">try</text></g></g><g transform="translate(10,5) scale(1,1)"><g><path fill="none" stroke="none"/><text fill="#000000" stroke="none" font-family="Arial" font-size="13px" font-style="normal" font-weight="bold" text-decoration="none" x="69" y="145.5">critical</text></g></g><g transform="translate(10,5) scale(1,1)"><path fill="#000000" stroke="none" d="M 16 300.5 C 16 296.6340064 19.1340064 293.5 23 293.5 C 26.8659936 293.5 30 296.6340064 30 300.5 C 30 304.3659936 26.8659936 307.5 23 307.5 C 19.1340064 307.5 16 304.3659936 16 300.5 Z"/></g><g transform="translate(10,5) scale(1,1)"><path fill="none" stroke="#000000" d="M 64 336 L 520 336 L 520 448 L 64 448 L 64 336" stroke-miterlimit="10"/></g><g transform="translate(10,5) scale(1,1)"><path fill="#ffffff" stroke="none" d="M 64 336 L 64 358 L 129.1435546875 358 L 140.1435546875 347 L 140.1435546875 336 L 64 336"/></g><g transform="translate(10,5) scale(1,1)"><path fill="none" stroke="#000000" d="M 64 336 L 64 358 L 129.1435546875 358 L 140.1435546875 347 L 140.1435546875 336 L 64 336 L 64 336" stroke-miterlimit="10"/></g><g transform="translate(10,5) scale(1,1)"><g><path fill="none" stroke="none"/><text fill="#000000" stroke="none" font-family="Arial" font-size="13px" font-style="normal" font-weight="normal" text-decoration="none" x="93.07177734375" y="353.5">catch</text></g></g><g transform="translate(10,5) scale(1,1)"><g><path fill="none" stroke="none"/><text fill="#000000" stroke="none" font-family="Arial" font-size="13px" font-style="normal" font-weight="bold" text-decoration="none" x="69" y="353.5">opt</text></g></g><g transform="translate(10,5) scale(1,1)"><g><path fill="none" stroke="none"/><text fill="#000000" stroke="none" font-family="Arial" font-size="13px" font-style="normal" font-weight="normal" text-decoration="none" x="83.5" y="386.5">[HibernateException]</text></g></g><g transform="translate(10,5) scale(1,1)"><path fill="#000000" stroke="none" d="M 16 421.5 C 16 417.6340064 19.1340064 414.5 23 414.5 C 26.8659936 414.5 30 417.6340064 30 421.5 C 30 425.3659936 26.8659936 428.5 23 428.5 C 19.1340064 428.5 16 425.3659936 16 421.5 Z"/></g><g transform="translate(10,5) scale(1,1)"><path fill="none" stroke="#000000" d="M 30 113 L 207 113" stroke-miterlimit="10"/></g><g transform="translate(10,5) scale(1,1)"><path fill="#000000" stroke="none" d="M 196.83732514237585 117.20951775601598 L 207 113 L 196.83732514237585 108.79048224398402"/></g><g transform="translate(10,5) scale(1,1)"><path fill="none" stroke="#000000" d="M 196.83732514237585 117.20951775601598 L 207 113 L 196.83732514237585 108.79048224398402 L 196.83732514237585 117.20951775601598" stroke-miterlimit="10"/></g><g transform="translate(10,5) scale(1,1)"><g><path fill="none" stroke="none"/><text fill="#000000" stroke="none" font-family="Arial" font-size="13px" font-style="normal" font-weight="normal" text-decoration="none" x="48" y="110">1 : addDelivery(delivery)</text></g></g><g transform="translate(10,5) scale(1,1)"><rect fill="#ffffff" stroke="none" x="207" y="113" width="13" height="311"/></g><g transform="translate(10,5) scale(1,1)"><path fill="none" stroke="#000000" d="M 207 113 L 220 113 L 220 424 L 207 424 L 207 113 Z Z" stroke-miterlimit="10"/></g><g transform="translate(10,5) scale(1,1)"><rect fill="#ffffff" stroke="none" x="192" y="144" width="280" height="64"/></g><g transform="translate(10,5) scale(1,1)"><path fill="none" stroke="#000000" d="M 192 144 L 472 144 L 472 208 L 192 208 L 192 144 Z Z" stroke-miterlimit="10"/></g><g transform="translate(10,5) scale(1,1)"><path fill="none" stroke="#000000" d="M 192 144 L 192 166 L 217.1708984375 166 L 228.1708984375 155 L 228.1708984375 144 L 192 144 L 192 144" stroke-miterlimit="10"/></g><g transform="translate(10,5) scale(1,1)"><g><path fill="none" stroke="none"/><text fill="#000000" stroke="none" font-family="Arial" font-size="13px" font-style="normal" font-weight="normal" text-decoration="none" x="213.5146484375" y="182.5">Interaction merge(delivery.getDeliverer())</text></g></g><g transform="translate(10,5) scale(1,1)"><g><path fill="none" stroke="none"/><text fill="#000000" stroke="none" font-family="Arial" font-size="13px" font-style="normal" font-weight="normal" text-decoration="none" x="197" y="161.5">ref</text></g></g><g transform="translate(10,5) scale(1,1)"><rect fill="#ffffff" stroke="none" x="192" y="224" width="280" height="64"/></g><g transform="translate(10,5) scale(1,1)"><path fill="none" stroke="#000000" d="M 192 224 L 472 224 L 472 288 L 192 288 L 192 224 Z Z" stroke-miterlimit="10"/></g><g transform="translate(10,5) scale(1,1)"><path fill="none" stroke="#000000" d="M 192 224 L 192 246 L 217.1708984375 246 L 228.1708984375 235 L 228.1708984375 224 L 192 224 L 192 224" stroke-miterlimit="10"/></g><g transform="translate(10,5) scale(1,1)"><g><path fill="none" stroke="none"/><text fill="#000000" stroke="none" font-family="Arial" font-size="13px" font-style="normal" font-weight="normal" text-decoration="none" x="259.385986328125" y="262.5">Interaction save(delivery)</text></g></g><g transform="translate(10,5) scale(1,1)"><g><path fill="none" stroke="none"/><text fill="#000000" stroke="none" font-family="Arial" font-size="13px" font-style="normal" font-weight="normal" text-decoration="none" x="197" y="241.5">ref</text></g></g><g transform="translate(10,5) scale(1,1)"><path fill="none" stroke="#000000" d="M 207 301 L 30 301" stroke-miterlimit="10" stroke-dasharray="3"/></g><g transform="translate(10,5) scale(1,1)"><path fill="none" stroke="#000000" d="M 40.162674857624154 296.790482243984 L 30 301 L 40.162674857624154 305.209517756016" stroke-miterlimit="10"/></g><g transform="translate(10,5) scale(1,1)"><g><path fill="none" stroke="none"/><text fill="#000000" stroke="none" font-family="Arial" font-size="13px" font-style="normal" font-weight="normal" text-decoration="none" x="97" y="318">2 : true</text></g></g><g transform="translate(10,5) scale(1,1)"><path fill="none" stroke="#000000" d="M 207 422 L 30 422" stroke-miterlimit="10" stroke-dasharray="3"/></g><g transform="translate(10,5) scale(1,1)"><path fill="none" stroke="#000000" d="M 40.162674857624154 417.790482243984 L 30 422 L 40.162674857624154 426.209517756016" stroke-miterlimit="10"/></g><g transform="translate(10,5) scale(1,1)"><g><path fill="none" stroke="none"/><text fill="#000000" stroke="none" font-family="Arial" font-size="13px" font-style="normal" font-weight="normal" text-decoration="none" x="95" y="439">3 : false</text></g></g></g></svg>