<svg version="1.1" xmlns="http://www.w3.org/2000/svg" xmlns:xlink="http://www.w3.org/1999/xlink" width="572" height="572"><defs/><g><g transform="translate(-30,-30) scale(1,1)"><rect fill="#ffffff" stroke="none" x="312" y="191" width="232" height="57"/></g><g transform="translate(-30,-30) scale(1,1)"><path fill="none" stroke="#000000" d="M 312 191 L 544 191 L 544 248 L 312 248 L 312 191 Z Z" stroke-miterlimit="10"/></g><g transform="translate(-30,-30) scale(1,1)"><rect fill="#ffffff" stroke="none" x="312" y="176" width="92.80000000000001" height="15"/></g><g transform="translate(-30,-30) scale(1,1)"><path fill="none" stroke="#000000" d="M 312 176 L 404.8 176 L 404.8 191 L 312 191 L 312 176 Z Z" stroke-miterlimit="10"/></g><g transform="translate(-30,-30) scale(1,1)"><rect fill="#ffffff" stroke="none" x="312" y="190" width="232" height="58"/></g><g transform="translate(-30,-30) scale(1,1)"><path fill="none" stroke="#000000" d="M 312 190 L 544 190 L 544 248 L 312 248 L 312 190 Z Z" stroke-miterlimit="10"/></g><g transform="translate(-30,-30) scale(1,1)"><g><path fill="none" stroke="none"/><text fill="#000000" stroke="none" font-family="Arial" font-size="13px" font-style="normal" font-weight="bold" text-decoration="none" x="391.1455078125" y="210.5">swe2.shared</text></g></g><g transform="translate(-30,-30) scale(1,1)"><rect fill="#ffffff" stroke="none" x="232" y="295" width="136" height="49"/></g><g transform="translate(-30,-30) scale(1,1)"><path fill="none" stroke="#000000" d="M 232 295 L 368 295 L 368 344 L 232 344 L 232 295 Z Z" stroke-miterlimit="10"/></g><g transform="translate(-30,-30) scale(1,1)"><rect fill="#ffffff" stroke="none" x="232" y="280" width="54.39999999999998" height="15"/></g><g transform="translate(-30,-30) scale(1,1)"><path fill="none" stroke="#000000" d="M 232 280 L 286.4 280 L 286.4 295 L 232 295 L 232 280 Z Z" stroke-miterlimit="10"/></g><g transform="translate(-30,-30) scale(1,1)"><rect fill="#ffffff" stroke="none" x="232" y="294" width="136" height="50"/></g><g transform="translate(-30,-30) scale(1,1)"><path fill="none" stroke="#000000" d="M 232 294 L 368 294 L 368 344 L 232 344 L 232 294 Z Z" stroke-miterlimit="10"/></g><g transform="translate(-30,-30) scale(1,1)"><path fill="none" stroke="#000000" d="M 277.4 283 L 271.4 290 L 283.4 290 L 277.4 283" stroke-miterlimit="10"/></g><g transform="translate(-30,-30) scale(1,1)"><g><path fill="none" stroke="none"/><text fill="#000000" stroke="none" font-family="Arial" font-size="13px" font-style="normal" font-weight="bold" text-decoration="none" x="282.29638671875" y="314.5">model</text></g></g><g transform="translate(-30,-30) scale(1,1)"><rect fill="#ffffff" stroke="none" x="456" y="295" width="136" height="49"/></g><g transform="translate(-30,-30) scale(1,1)"><path fill="none" stroke="#000000" d="M 456 295 L 592 295 L 592 344 L 456 344 L 456 295 Z Z" stroke-miterlimit="10"/></g><g transform="translate(-30,-30) scale(1,1)"><rect fill="#ffffff" stroke="none" x="456" y="280" width="54.39999999999998" height="15"/></g><g transform="translate(-30,-30) scale(1,1)"><path fill="none" stroke="#000000" d="M 456 280 L 510.4 280 L 510.4 295 L 456 295 L 456 280 Z Z" stroke-miterlimit="10"/></g><g transform="translate(-30,-30) scale(1,1)"><rect fill="#ffffff" stroke="none" x="456" y="294" width="136" height="50"/></g><g transform="translate(-30,-30) scale(1,1)"><path fill="none" stroke="#000000" d="M 456 294 L 592 294 L 592 344 L 456 344 L 456 294 Z Z" stroke-miterlimit="10"/></g><g transform="translate(-30,-30) scale(1,1)"><g><path fill="none" stroke="none"/><text fill="#000000" stroke="none" font-family="Arial" font-size="13px" font-style="normal" font-weight="bold" text-decoration="none" x="514.964111328125" y="314.5">net</text></g></g><g transform="translate(-30,-30) scale(1,1)"><rect fill="#ffffff" stroke="none" x="40" y="55" width="232" height="193"/></g><g transform="translate(-30,-30) scale(1,1)"><path fill="none" stroke="#000000" d="M 40 55 L 272 55 L 272 248 L 40 248 L 40 55 Z Z" stroke-miterlimit="10"/></g><g transform="translate(-30,-30) scale(1,1)"><rect fill="#ffffff" stroke="none" x="40" y="40" width="92.80000000000001" height="15"/></g><g transform="translate(-30,-30) scale(1,1)"><path fill="none" stroke="#000000" d="M 40 40 L 132.8 40 L 132.8 55 L 40 55 L 40 40 Z Z" stroke-miterlimit="10"/></g><g transform="translate(-30,-30) scale(1,1)"><rect fill="#ffffff" stroke="none" x="40" y="54" width="232" height="194"/></g><g transform="translate(-30,-30) scale(1,1)"><path fill="none" stroke="#000000" d="M 40 54 L 272 54 L 272 248 L 40 248 L 40 54 Z Z" stroke-miterlimit="10"/></g><g transform="translate(-30,-30) scale(1,1)"><g><path fill="none" stroke="none"/><text fill="#000000" stroke="none" font-family="Arial" font-size="13px" font-style="normal" font-weight="bold" text-decoration="none" x="120.9609375" y="74.5">swe2.server</text></g></g><g transform="translate(-30,-30) scale(1,1)"><rect fill="#ffffff" stroke="none" x="64" y="183" width="184" height="49"/></g><g transform="translate(-30,-30) scale(1,1)"><path fill="none" stroke="#000000" d="M 64 183 L 248 183 L 248 232 L 64 232 L 64 183 Z Z" stroke-miterlimit="10"/></g><g transform="translate(-30,-30) scale(1,1)"><rect fill="#ffffff" stroke="none" x="64" y="168" width="73.6" height="15"/></g><g transform="translate(-30,-30) scale(1,1)"><path fill="none" stroke="#000000" d="M 64 168 L 137.6 168 L 137.6 183 L 64 183 L 64 168 Z Z" stroke-miterlimit="10"/></g><g transform="translate(-30,-30) scale(1,1)"><rect fill="#ffffff" stroke="none" x="64" y="182" width="184" height="50"/></g><g transform="translate(-30,-30) scale(1,1)"><path fill="none" stroke="#000000" d="M 64 182 L 248 182 L 248 232 L 64 232 L 64 182 Z Z" stroke-miterlimit="10"/></g><g transform="translate(-30,-30) scale(1,1)"><g><path fill="none" stroke="none"/><text fill="#000000" stroke="none" font-family="Arial" font-size="13px" font-style="normal" font-weight="bold" text-decoration="none" x="146.964111328125" y="202.5">net</text></g></g><g transform="translate(-30,-30) scale(1,1)"><path fill="none" stroke="#000000" d="M 198 233 L 258 279" stroke-miterlimit="10" stroke-dasharray="3"/></g><g transform="translate(-30,-30) scale(1,1)"><path fill="none" stroke="#000000" d="M 247.37363319890312 276.15740811783576 L 258 279 L 252.49603997159298 269.4760079795446" stroke-miterlimit="10"/></g><g transform="translate(-30,-30) scale(1,1)"><path fill="none" stroke="#000000" d="M 249 228 L 455 291" stroke-miterlimit="10" stroke-dasharray="3"/></g><g transform="translate(-30,-30) scale(1,1)"><path fill="none" stroke="#000000" d="M 444.0505506872218 292.0533564196896 L 455 291 L 446.51273467330725 284.002405608045" stroke-miterlimit="10"/></g><g transform="translate(-30,-30) scale(1,1)"><rect fill="#ffffff" stroke="none" x="64" y="103" width="184" height="49"/></g><g transform="translate(-30,-30) scale(1,1)"><path fill="none" stroke="#000000" d="M 64 103 L 248 103 L 248 152 L 64 152 L 64 103 Z Z" stroke-miterlimit="10"/></g><g transform="translate(-30,-30) scale(1,1)"><rect fill="#ffffff" stroke="none" x="64" y="88" width="73.6" height="15"/></g><g transform="translate(-30,-30) scale(1,1)"><path fill="none" stroke="#000000" d="M 64 88 L 137.6 88 L 137.6 103 L 64 103 L 64 88 Z Z" stroke-miterlimit="10"/></g><g transform="translate(-30,-30) scale(1,1)"><rect fill="#ffffff" stroke="none" x="64" y="102" width="184" height="50"/></g><g transform="translate(-30,-30) scale(1,1)"><path fill="none" stroke="#000000" d="M 64 102 L 248 102 L 248 152 L 64 152 L 64 102 Z Z" stroke-miterlimit="10"/></g><g transform="translate(-30,-30) scale(1,1)"><g><path fill="none" stroke="none"/><text fill="#000000" stroke="none" font-family="Arial" font-size="13px" font-style="normal" font-weight="bold" text-decoration="none" x="143.34912109375" y="122.5">data</text></g></g><g transform="translate(-30,-30) scale(1,1)"><path fill="none" stroke="#000000" d="M 181 153 L 275 279" stroke-miterlimit="10" stroke-dasharray="3"/></g><g transform="translate(-30,-30) scale(1,1)"><path fill="none" stroke="#000000" d="M 265.54907211036925 273.3715044616701 L 275 279 L 272.2971321637683 268.3372374377057" stroke-miterlimit="10"/></g><g transform="translate(-30,-30) scale(1,1)"><rect fill="#ffffff" stroke="none" x="40" y="383" width="232" height="209"/></g><g transform="translate(-30,-30) scale(1,1)"><path fill="none" stroke="#000000" d="M 40 383 L 272 383 L 272 592 L 40 592 L 40 383 Z Z" stroke-miterlimit="10"/></g><g transform="translate(-30,-30) scale(1,1)"><rect fill="#ffffff" stroke="none" x="40" y="368" width="92.80000000000001" height="15"/></g><g transform="translate(-30,-30) scale(1,1)"><path fill="none" stroke="#000000" d="M 40 368 L 132.8 368 L 132.8 383 L 40 383 L 40 368 Z Z" stroke-miterlimit="10"/></g><g transform="translate(-30,-30) scale(1,1)"><rect fill="#ffffff" stroke="none" x="40" y="382" width="232" height="210"/></g><g transform="translate(-30,-30) scale(1,1)"><path fill="none" stroke="#000000" d="M 40 382 L 272 382 L 272 592 L 40 592 L 40 382 Z Z" stroke-miterlimit="10"/></g><g transform="translate(-30,-30) scale(1,1)"><g><path fill="none" stroke="none"/><text fill="#000000" stroke="none" font-family="Arial" font-size="13px" font-style="normal" font-weight="bold" text-decoration="none" x="123.845947265625" y="402.5">swe2.client</text></g></g><g transform="translate(-30,-30) scale(1,1)"><rect fill="#ffffff" stroke="none" x="64" y="439" width="184" height="49"/></g><g transform="translate(-30,-30) scale(1,1)"><path fill="none" stroke="#000000" d="M 64 439 L 248 439 L 248 488 L 64 488 L 64 439 Z Z" stroke-miterlimit="10"/></g><g transform="translate(-30,-30) scale(1,1)"><rect fill="#ffffff" stroke="none" x="64" y="424" width="73.6" height="15"/></g><g transform="translate(-30,-30) scale(1,1)"><path fill="none" stroke="#000000" d="M 64 424 L 137.6 424 L 137.6 439 L 64 439 L 64 424 Z Z" stroke-miterlimit="10"/></g><g transform="translate(-30,-30) scale(1,1)"><rect fill="#ffffff" stroke="none" x="64" y="438" width="184" height="50"/></g><g transform="translate(-30,-30) scale(1,1)"><path fill="none" stroke="#000000" d="M 64 438 L 248 438 L 248 488 L 64 488 L 64 438 Z Z" stroke-miterlimit="10"/></g><g transform="translate(-30,-30) scale(1,1)"><g><path fill="none" stroke="none"/><text fill="#000000" stroke="none" font-family="Arial" font-size="13px" font-style="normal" font-weight="bold" text-decoration="none" x="146.964111328125" y="458.5">net</text></g></g><g transform="translate(-30,-30) scale(1,1)"><path fill="none" stroke="#000000" d="M 240 423 L 455 339" stroke-miterlimit="10" stroke-dasharray="3"/></g><g transform="translate(-30,-30) scale(1,1)"><path fill="none" stroke="#000000" d="M 447.06601745459665 346.6191811219602 L 455 339 L 444.002252501903 338.7774017787562" stroke-miterlimit="10"/></g><g transform="translate(-30,-30) scale(1,1)"><path fill="none" stroke="#000000" d="M 189 423 L 267 345" stroke-miterlimit="10" stroke-dasharray="3"/></g><g transform="translate(-30,-30) scale(1,1)"><path fill="none" stroke="#000000" d="M 262.790482243984 355.16267485762415 L 267 345 L 256.83732514237585 349.209517756016" stroke-miterlimit="10"/></g><g transform="translate(-30,-30) scale(1,1)"><rect fill="#ffffff" stroke="none" x="64" y="519" width="184" height="49"/></g><g transform="translate(-30,-30) scale(1,1)"><path fill="none" stroke="#000000" d="M 64 519 L 248 519 L 248 568 L 64 568 L 64 519 Z Z" stroke-miterlimit="10"/></g><g transform="translate(-30,-30) scale(1,1)"><rect fill="#ffffff" stroke="none" x="64" y="504" width="73.6" height="15"/></g><g transform="translate(-30,-30) scale(1,1)"><path fill="none" stroke="#000000" d="M 64 504 L 137.6 504 L 137.6 519 L 64 519 L 64 504 Z Z" stroke-miterlimit="10"/></g><g transform="translate(-30,-30) scale(1,1)"><rect fill="#ffffff" stroke="none" x="64" y="518" width="184" height="50"/></g><g transform="translate(-30,-30) scale(1,1)"><path fill="none" stroke="#000000" d="M 64 518 L 248 518 L 248 568 L 64 568 L 64 518 Z Z" stroke-miterlimit="10"/></g><g transform="translate(-30,-30) scale(1,1)"><g><path fill="none" stroke="none"/><text fill="#000000" stroke="none" font-family="Arial" font-size="13px" font-style="normal" font-weight="bold" text-decoration="none" x="129.266845703125" y="538.5">controller</text></g></g><g transform="translate(-30,-30) scale(1,1)"><path fill="none" stroke="#000000" d="M 177 503 L 279 345" stroke-miterlimit="10" stroke-dasharray="3"/></g><g transform="translate(-30,-30) scale(1,1)"><path fill="none" stroke="#000000" d="M 277.02466507331906 355.82118532913256 L 279 345 L 269.95149375152323 351.2549608049353" stroke-miterlimit="10"/></g><g transform="translate(-30,-30) scale(1,1)"><path fill="none" stroke="#000000" d="M 342 279 L 381 249" stroke-miterlimit="10"/></g><g transform="translate(-30,-30) scale(1,1)"><path fill="#FFFFFF" stroke="none" d="M 368.4516320762678 253.26797532594787 C 368.4516320762678 249.40198172594788 371.5856384762678 246.26797532594784 375.4516320762678 246.26797532594784 C 379.3176256762678 246.26797532594784 382.4516320762678 249.40198172594788 382.4516320762678 253.26797532594787 C 382.4516320762678 257.1339689259479 379.3176256762678 260.2679753259479 375.4516320762678 260.2679753259479 C 371.5856384762678 260.2679753259479 368.4516320762678 257.1339689259479 368.4516320762678 253.26797532594787 Z"/></g><g transform="translate(-30,-30) scale(1,1)"><path fill="none" stroke="#000000" d="M 368.4516320762678 253.26797532594787 C 368.4516320762678 249.40198172594788 371.5856384762678 246.26797532594784 375.4516320762678 246.26797532594784 C 379.3176256762678 246.26797532594784 382.4516320762678 249.40198172594788 382.4516320762678 253.26797532594787 C 382.4516320762678 257.1339689259479 379.3176256762678 260.2679753259479 375.4516320762678 260.2679753259479 C 371.5856384762678 260.2679753259479 368.4516320762678 257.1339689259479 368.4516320762678 253.26797532594787 Z" stroke-miterlimit="10"/></g><g transform="translate(-30,-30) scale(1,1)"><path fill="none" stroke="#000000" d="M 369.9032641525356 257.5359506518957 L 381 249" stroke-miterlimit="10"/></g><g transform="translate(-30,-30) scale(1,1)"><path fill="none" stroke="#000000" d="M 379.7196074022157 258.81634324968 L 371.1836567503199 247.71960740221564" stroke-miterlimit="10"/></g><g transform="translate(-30,-30) scale(1,1)"><path fill="none" stroke="#000000" d="M 492 279 L 464 249" stroke-miterlimit="10"/></g><g transform="translate(-30,-30) scale(1,1)"><path fill="#FFFFFF" stroke="none" d="M 461.7762277525201 254.11738687770008 C 461.7762277525201 250.2513932777001 464.91023415252005 247.11738687770008 468.7762277525201 247.11738687770008 C 472.6422213525201 247.11738687770008 475.7762277525201 250.2513932777001 475.7762277525201 254.11738687770008 C 475.7762277525201 257.9833804777001 472.6422213525201 261.1173868777001 468.7762277525201 261.1173868777001 C 464.91023415252005 261.1173868777001 461.7762277525201 257.9833804777001 461.7762277525201 254.11738687770008 Z"/></g><g transform="translate(-30,-30) scale(1,1)"><path fill="none" stroke="#000000" d="M 461.7762277525201 254.11738687770008 C 461.7762277525201 250.2513932777001 464.91023415252005 247.11738687770008 468.7762277525201 247.11738687770008 C 472.6422213525201 247.11738687770008 475.7762277525201 250.2513932777001 475.7762277525201 254.11738687770008 C 475.7762277525201 257.9833804777001 472.6422213525201 261.1173868777001 468.7762277525201 261.1173868777001 C 464.91023415252005 261.1173868777001 461.7762277525201 257.9833804777001 461.7762277525201 254.11738687770008 Z" stroke-miterlimit="10"/></g><g transform="translate(-30,-30) scale(1,1)"><path fill="none" stroke="#000000" d="M 473.55245550504014 259.23477375540017 L 464 249" stroke-miterlimit="10"/></g><g transform="translate(-30,-30) scale(1,1)"><path fill="none" stroke="#000000" d="M 473.89361463022016 249.34115912518 L 463.65884087482 258.89361463022016" stroke-miterlimit="10"/></g></g></svg>