<?xml version="1.0" encoding="utf-8" ?>
<!DOCTYPE svg PUBLIC "-//W3C//DTD SVG 1.1//EN" "http://www.w3.org/Graphics/SVG/1.1/DTD/svg11.dtd">
<svg height="860" version="1.1" width="750" xmlns="http://www.w3.org/2000/svg">
<text font-family="Dialog" font-size="12" font-weight="bold" x="19" y="595">
Operator</text>
<ellipse cx="44" cy="543" fill="#000000" rx="8.0" ry="7.5" stroke="#000000" stroke-width="1"/>
<ellipse cx="44" cy="543" fill="#ffffff" rx="7.0" ry="6.5" stroke="#ffffff" stroke-width="1"/>
<line fill="#000000" stroke="#000000" stroke-width="1" x1="44" x2="44" y1="551" y2="566"/>
<line fill="#000000" stroke="#000000" stroke-width="1" x1="34" x2="54" y1="556" y2="556"/>
<line fill="#000000" stroke="#000000" stroke-width="1" x1="44" x2="39" y1="566" y2="581"/>
<line fill="#000000" stroke="#000000" stroke-width="1" x1="44" x2="49" y1="566" y2="581"/>
<text font-family="Dialog" font-size="12" font-weight="bold" x="19" y="227">
Deliverer</text>
<ellipse cx="44" cy="175" fill="#000000" rx="8.0" ry="7.5" stroke="#000000" stroke-width="1"/>
<ellipse cx="44" cy="175" fill="#ffffff" rx="7.0" ry="6.5" stroke="#ffffff" stroke-width="1"/>
<line fill="#000000" stroke="#000000" stroke-width="1" x1="44" x2="44" y1="183" y2="198"/>
<line fill="#000000" stroke="#000000" stroke-width="1" x1="34" x2="54" y1="188" y2="188"/>
<line fill="#000000" stroke="#000000" stroke-width="1" x1="44" x2="39" y1="198" y2="213"/>
<line fill="#000000" stroke="#000000" stroke-width="1" x1="44" x2="49" y1="198" y2="213"/>
<ellipse cx="213" cy="203" fill="#000000" rx="55.0" ry="21.0" stroke="#000000" stroke-width="1"/>
<ellipse cx="213" cy="203" fill="#ffffff" rx="54.0" ry="20.0" stroke="#ffffff" stroke-width="1"/>
<text font-family="Dialog" font-size="12" font-weight="bold" x="197" y="204">
Login</text>
<polyline fill="none" points="54,188 159,197" stroke="#000000" stroke-width="1"/>
<ellipse cx="447" cy="140" fill="#000000" rx="57.0" ry="22.0" stroke="#000000" stroke-width="1"/>
<ellipse cx="447" cy="140" fill="#ffffff" rx="56.0" ry="21.0" stroke="#ffffff" stroke-width="1"/>
<text font-family="Dialog" font-size="12" font-weight="bold" x="405" y="141">
Load Template</text>
<ellipse cx="275" cy="94" fill="#000000" rx="69.0" ry="24.0" stroke="#000000" stroke-width="1"/>
<ellipse cx="275" cy="94" fill="#ffffff" rx="68.0" ry="23.0" stroke="#ffffff" stroke-width="1"/>
<text font-family="Dialog" font-size="12" font-weight="bold" x="229" y="95">
View Templates</text>
<ellipse cx="443" cy="37" fill="#000000" rx="61.0" ry="23.0" stroke="#000000" stroke-width="1"/>
<ellipse cx="443" cy="37" fill="#ffffff" rx="60.0" ry="22.0" stroke="#ffffff" stroke-width="1"/>
<text font-family="Dialog" font-size="12" font-weight="bold" x="397" y="38">
Delete Template</text>
<ellipse cx="437" cy="248" fill="#000000" rx="79.0" ry="26.0" stroke="#000000" stroke-width="1"/>
<ellipse cx="437" cy="248" fill="#ffffff" rx="78.0" ry="25.0" stroke="#ffffff" stroke-width="1"/>
<text font-family="Dialog" font-size="12" font-weight="bold" x="373" y="249">
Create Delivery Report</text>
<ellipse cx="640" cy="197" fill="#000000" rx="66.0" ry="23.0" stroke="#000000" stroke-width="1"/>
<ellipse cx="640" cy="197" fill="#ffffff" rx="65.0" ry="22.0" stroke="#ffffff" stroke-width="1"/>
<text font-family="Dialog" font-size="12" font-weight="bold" x="589" y="198">
Save as Template</text>
<ellipse cx="639" cy="316" fill="#000000" rx="57.0" ry="22.0" stroke="#000000" stroke-width="1"/>
<ellipse cx="639" cy="316" fill="#ffffff" rx="56.0" ry="21.0" stroke="#ffffff" stroke-width="1"/>
<text font-family="Dialog" font-size="12" font-weight="bold" x="598" y="317">
Submit Report</text>
<ellipse cx="197" cy="523" fill="#000000" rx="55.0" ry="21.0" stroke="#000000" stroke-width="1"/>
<ellipse cx="197" cy="523" fill="#ffffff" rx="54.0" ry="20.0" stroke="#ffffff" stroke-width="1"/>
<text font-family="Dialog" font-size="12" font-weight="bold" x="181" y="524">
Login</text>
<line fill="#000000" stroke="#000000" stroke-width="1" x1="260" x2="258" y1="117" y2="121"/>
<line fill="#000000" stroke="#000000" stroke-width="1" x1="256" x2="253" y1="125" y2="130"/>
<line fill="#000000" stroke="#000000" stroke-width="1" x1="251" x2="248" y1="134" y2="138"/>
<line fill="#000000" stroke="#000000" stroke-width="1" x1="246" x2="243" y1="143" y2="147"/>
<line fill="#000000" stroke="#000000" stroke-width="1" x1="241" x2="239" y1="152" y2="156"/>
<line fill="#000000" stroke="#000000" stroke-width="1" x1="236" x2="234" y1="160" y2="165"/>
<line fill="#000000" stroke="#000000" stroke-width="1" x1="231" x2="229" y1="169" y2="174"/>
<line fill="#000000" stroke="#000000" stroke-width="1" x1="226" x2="224" y1="178" y2="182"/>
<line fill="#000000" stroke="#000000" stroke-width="1" x1="223" x2="224" y1="168" y2="182"/>
<line fill="#000000" stroke="#000000" stroke-width="1" x1="235" x2="224" y1="174" y2="182"/>
<text font-family="Dialog" font-size="12" x="177" y="138">
&lt;&lt;include&gt;&gt;</text>
<line fill="#000000" stroke="#000000" stroke-width="1" x1="369" x2="365" y1="234" y2="233"/>
<line fill="#000000" stroke="#000000" stroke-width="1" x1="360" x2="355" y1="232" y2="231"/>
<line fill="#000000" stroke="#000000" stroke-width="1" x1="350" x2="345" y1="230" y2="229"/>
<line fill="#000000" stroke="#000000" stroke-width="1" x1="340" x2="335" y1="228" y2="227"/>
<line fill="#000000" stroke="#000000" stroke-width="1" x1="330" x2="325" y1="226" y2="225"/>
<line fill="#000000" stroke="#000000" stroke-width="1" x1="320" x2="315" y1="224" y2="223"/>
<line fill="#000000" stroke="#000000" stroke-width="1" x1="311" x2="306" y1="222" y2="221"/>
<line fill="#000000" stroke="#000000" stroke-width="1" x1="301" x2="296" y1="220" y2="219"/>
<line fill="#000000" stroke="#000000" stroke-width="1" x1="291" x2="286" y1="218" y2="217"/>
<line fill="#000000" stroke="#000000" stroke-width="1" x1="281" x2="276" y1="216" y2="215"/>
<line fill="#000000" stroke="#000000" stroke-width="1" x1="271" x2="266" y1="214" y2="213"/>
<line fill="#000000" stroke="#000000" stroke-width="1" x1="274" x2="261" y1="207" y2="212"/>
<line fill="#000000" stroke="#000000" stroke-width="1" x1="271" x2="261" y1="221" y2="212"/>
<text font-family="Dialog" font-size="12" x="284" y="211">
&lt;&lt;include&gt;&gt;</text>
<line fill="#000000" stroke="#000000" stroke-width="1" x1="399" x2="395" y1="127" y2="126"/>
<line fill="#000000" stroke="#000000" stroke-width="1" x1="390" x2="385" y1="125" y2="124"/>
<line fill="#000000" stroke="#000000" stroke-width="1" x1="380" x2="375" y1="122" y2="121"/>
<line fill="#000000" stroke="#000000" stroke-width="1" x1="370" x2="365" y1="120" y2="118"/>
<line fill="#000000" stroke="#000000" stroke-width="1" x1="361" x2="356" y1="117" y2="116"/>
<line fill="#000000" stroke="#000000" stroke-width="1" x1="351" x2="346" y1="114" y2="113"/>
<line fill="#000000" stroke="#000000" stroke-width="1" x1="341" x2="336" y1="112" y2="110"/>
<line fill="#000000" stroke="#000000" stroke-width="1" x1="331" x2="329" y1="109" y2="108"/>
<line fill="#000000" stroke="#000000" stroke-width="1" x1="342" x2="329" y1="104" y2="108"/>
<line fill="#000000" stroke="#000000" stroke-width="1" x1="338" x2="329" y1="117" y2="108"/>
<text font-family="Dialog" font-size="12" x="334" y="104">
&lt;&lt;include&gt;&gt;</text>
<line fill="#000000" stroke="#000000" stroke-width="1" x1="396" x2="392" y1="51" y2="52"/>
<line fill="#000000" stroke="#000000" stroke-width="1" x1="387" x2="382" y1="54" y2="55"/>
<line fill="#000000" stroke="#000000" stroke-width="1" x1="378" x2="373" y1="57" y2="59"/>
<line fill="#000000" stroke="#000000" stroke-width="1" x1="368" x2="363" y1="60" y2="62"/>
<line fill="#000000" stroke="#000000" stroke-width="1" x1="359" x2="354" y1="63" y2="65"/>
<line fill="#000000" stroke="#000000" stroke-width="1" x1="349" x2="344" y1="67" y2="68"/>
<line fill="#000000" stroke="#000000" stroke-width="1" x1="340" x2="335" y1="70" y2="72"/>
<line fill="#000000" stroke="#000000" stroke-width="1" x1="330" x2="325" y1="73" y2="75"/>
<line fill="#000000" stroke="#000000" stroke-width="1" x1="332" x2="323" y1="65" y2="76"/>
<line fill="#000000" stroke="#000000" stroke-width="1" x1="336" x2="323" y1="78" y2="76"/>
<text font-family="Dialog" font-size="12" x="319" y="48">
&lt;&lt;include&gt;&gt;</text>
<line fill="#000000" stroke="#000000" stroke-width="1" x1="585" x2="581" y1="210" y2="211"/>
<line fill="#000000" stroke="#000000" stroke-width="1" x1="576" x2="571" y1="212" y2="213"/>
<line fill="#000000" stroke="#000000" stroke-width="1" x1="566" x2="561" y1="215" y2="216"/>
<line fill="#000000" stroke="#000000" stroke-width="1" x1="556" x2="551" y1="217" y2="218"/>
<line fill="#000000" stroke="#000000" stroke-width="1" x1="546" x2="542" y1="220" y2="221"/>
<line fill="#000000" stroke="#000000" stroke-width="1" x1="537" x2="532" y1="222" y2="223"/>
<line fill="#000000" stroke="#000000" stroke-width="1" x1="527" x2="522" y1="225" y2="226"/>
<line fill="#000000" stroke="#000000" stroke-width="1" x1="517" x2="512" y1="227" y2="228"/>
<line fill="#000000" stroke="#000000" stroke-width="1" x1="507" x2="502" y1="230" y2="231"/>
<line fill="#000000" stroke="#000000" stroke-width="1" x1="508" x2="499" y1="222" y2="232"/>
<line fill="#000000" stroke="#000000" stroke-width="1" x1="512" x2="499" y1="235" y2="232"/>
<text font-family="Dialog" font-size="12" x="504" y="209">
&lt;&lt;include&gt;&gt;</text>
<line fill="#000000" stroke="#000000" stroke-width="1" x1="596" x2="592" y1="301" y2="300"/>
<line fill="#000000" stroke="#000000" stroke-width="1" x1="587" x2="582" y1="298" y2="297"/>
<line fill="#000000" stroke="#000000" stroke-width="1" x1="577" x2="573" y1="295" y2="293"/>
<line fill="#000000" stroke="#000000" stroke-width="1" x1="568" x2="563" y1="292" y2="290"/>
<line fill="#000000" stroke="#000000" stroke-width="1" x1="558" x2="554" y1="289" y2="287"/>
<line fill="#000000" stroke="#000000" stroke-width="1" x1="549" x2="544" y1="285" y2="284"/>
<line fill="#000000" stroke="#000000" stroke-width="1" x1="539" x2="534" y1="282" y2="281"/>
<line fill="#000000" stroke="#000000" stroke-width="1" x1="530" x2="525" y1="279" y2="277"/>
<line fill="#000000" stroke="#000000" stroke-width="1" x1="520" x2="515" y1="276" y2="274"/>
<line fill="#000000" stroke="#000000" stroke-width="1" x1="511" x2="506" y1="273" y2="271"/>
<line fill="#000000" stroke="#000000" stroke-width="1" x1="501" x2="496" y1="269" y2="268"/>
<line fill="#000000" stroke="#000000" stroke-width="1" x1="505" x2="492" y1="263" y2="266"/>
<line fill="#000000" stroke="#000000" stroke-width="1" x1="501" x2="492" y1="276" y2="266"/>
<text font-family="Dialog" font-size="12" x="518" y="269">
&lt;&lt;include&gt;&gt;</text>
<polyline fill="none" points="145,530 53,543" stroke="#000000" stroke-width="1"/>
<ellipse cx="355" cy="384" fill="#000000" rx="77.0" ry="26.0" stroke="#000000" stroke-width="1"/>
<ellipse cx="355" cy="384" fill="#ffffff" rx="76.0" ry="25.0" stroke="#ffffff" stroke-width="1"/>
<text font-family="Dialog" font-size="12" font-weight="bold" x="293" y="385">
View Delivery Reports</text>
<line fill="#000000" stroke="#000000" stroke-width="1" x1="326" x2="323" y1="408" y2="411"/>
<line fill="#000000" stroke="#000000" stroke-width="1" x1="319" x2="315" y1="414" y2="417"/>
<line fill="#000000" stroke="#000000" stroke-width="1" x1="311" x2="308" y1="421" y2="424"/>
<line fill="#000000" stroke="#000000" stroke-width="1" x1="304" x2="300" y1="427" y2="431"/>
<line fill="#000000" stroke="#000000" stroke-width="1" x1="296" x2="293" y1="434" y2="437"/>
<line fill="#000000" stroke="#000000" stroke-width="1" x1="289" x2="285" y1="441" y2="444"/>
<line fill="#000000" stroke="#000000" stroke-width="1" x1="281" x2="277" y1="447" y2="451"/>
<line fill="#000000" stroke="#000000" stroke-width="1" x1="274" x2="270" y1="454" y2="457"/>
<line fill="#000000" stroke="#000000" stroke-width="1" x1="266" x2="262" y1="461" y2="464"/>
<line fill="#000000" stroke="#000000" stroke-width="1" x1="259" x2="255" y1="467" y2="471"/>
<line fill="#000000" stroke="#000000" stroke-width="1" x1="251" x2="247" y1="474" y2="477"/>
<line fill="#000000" stroke="#000000" stroke-width="1" x1="243" x2="240" y1="481" y2="484"/>
<line fill="#000000" stroke="#000000" stroke-width="1" x1="236" x2="232" y1="487" y2="491"/>
<line fill="#000000" stroke="#000000" stroke-width="1" x1="228" x2="225" y1="494" y2="497"/>
<line fill="#000000" stroke="#000000" stroke-width="1" x1="221" x2="218" y1="501" y2="503"/>
<line fill="#000000" stroke="#000000" stroke-width="1" x1="222" x2="218" y1="489" y2="503"/>
<line fill="#000000" stroke="#000000" stroke-width="1" x1="231" x2="218" y1="500" y2="503"/>
<text font-family="Dialog" font-size="12" x="218" y="437">
&lt;&lt;include&gt;&gt;</text>
<ellipse cx="423" cy="495" fill="#000000" rx="73.0" ry="25.0" stroke="#000000" stroke-width="1"/>
<ellipse cx="423" cy="495" fill="#ffffff" rx="72.0" ry="24.0" stroke="#ffffff" stroke-width="1"/>
<text font-family="Dialog" font-size="12" font-weight="bold" x="365" y="496">
View Waste Storage</text>
<line fill="#000000" stroke="#000000" stroke-width="1" x1="354" x2="349" y1="503" y2="503"/>
<line fill="#000000" stroke="#000000" stroke-width="1" x1="344" x2="339" y1="504" y2="504"/>
<line fill="#000000" stroke="#000000" stroke-width="1" x1="334" x2="329" y1="505" y2="506"/>
<line fill="#000000" stroke="#000000" stroke-width="1" x1="324" x2="319" y1="506" y2="507"/>
<line fill="#000000" stroke="#000000" stroke-width="1" x1="314" x2="309" y1="507" y2="508"/>
<line fill="#000000" stroke="#000000" stroke-width="1" x1="304" x2="299" y1="509" y2="509"/>
<line fill="#000000" stroke="#000000" stroke-width="1" x1="294" x2="289" y1="510" y2="511"/>
<line fill="#000000" stroke="#000000" stroke-width="1" x1="284" x2="279" y1="511" y2="512"/>
<line fill="#000000" stroke="#000000" stroke-width="1" x1="274" x2="269" y1="512" y2="513"/>
<line fill="#000000" stroke="#000000" stroke-width="1" x1="264" x2="259" y1="514" y2="514"/>
<line fill="#000000" stroke="#000000" stroke-width="1" x1="254" x2="249" y1="515" y2="516"/>
<line fill="#000000" stroke="#000000" stroke-width="1" x1="260" x2="249" y1="507" y2="516"/>
<line fill="#000000" stroke="#000000" stroke-width="1" x1="261" x2="249" y1="521" y2="516"/>
<text font-family="Dialog" font-size="12" x="267" y="501">
&lt;&lt;include&gt;&gt;</text>
<ellipse cx="429" cy="598" fill="#000000" rx="71.0" ry="24.0" stroke="#000000" stroke-width="1"/>
<ellipse cx="429" cy="598" fill="#ffffff" rx="70.0" ry="23.0" stroke="#ffffff" stroke-width="1"/>
<text font-family="Dialog" font-size="12" font-weight="bold" x="374" y="599">
Create Combustion</text>
<line fill="#000000" stroke="#000000" stroke-width="1" x1="377" x2="373" y1="581" y2="580"/>
<line fill="#000000" stroke="#000000" stroke-width="1" x1="368" x2="363" y1="578" y2="577"/>
<line fill="#000000" stroke="#000000" stroke-width="1" x1="358" x2="354" y1="575" y2="574"/>
<line fill="#000000" stroke="#000000" stroke-width="1" x1="349" x2="344" y1="572" y2="571"/>
<line fill="#000000" stroke="#000000" stroke-width="1" x1="339" x2="335" y1="569" y2="568"/>
<line fill="#000000" stroke="#000000" stroke-width="1" x1="330" x2="325" y1="566" y2="564"/>
<line fill="#000000" stroke="#000000" stroke-width="1" x1="320" x2="316" y1="563" y2="561"/>
<line fill="#000000" stroke="#000000" stroke-width="1" x1="311" x2="306" y1="560" y2="558"/>
<line fill="#000000" stroke="#000000" stroke-width="1" x1="301" x2="297" y1="557" y2="555"/>
<line fill="#000000" stroke="#000000" stroke-width="1" x1="292" x2="287" y1="554" y2="552"/>
<line fill="#000000" stroke="#000000" stroke-width="1" x1="282" x2="278" y1="550" y2="549"/>
<line fill="#000000" stroke="#000000" stroke-width="1" x1="273" x2="268" y1="547" y2="546"/>
<line fill="#000000" stroke="#000000" stroke-width="1" x1="263" x2="259" y1="544" y2="543"/>
<line fill="#000000" stroke="#000000" stroke-width="1" x1="254" x2="249" y1="541" y2="540"/>
<line fill="#000000" stroke="#000000" stroke-width="1" x1="244" x2="239" y1="538" y2="536"/>
<line fill="#000000" stroke="#000000" stroke-width="1" x1="252" x2="239" y1="533" y2="536"/>
<line fill="#000000" stroke="#000000" stroke-width="1" x1="248" x2="239" y1="546" y2="536"/>
<text font-family="Dialog" font-size="12" x="281" y="545">
&lt;&lt;include&gt;&gt;</text>
<ellipse cx="421" cy="701" fill="#000000" rx="63.0" ry="23.0" stroke="#000000" stroke-width="1"/>
<ellipse cx="421" cy="701" fill="#ffffff" rx="62.0" ry="22.0" stroke="#ffffff" stroke-width="1"/>
<text font-family="Dialog" font-size="12" font-weight="bold" x="375" y="702">
End Combustion</text>
<ellipse cx="647" cy="541" fill="#000000" rx="65.0" ry="23.0" stroke="#000000" stroke-width="1"/>
<ellipse cx="647" cy="541" fill="#ffffff" rx="64.0" ry="22.0" stroke="#ffffff" stroke-width="1"/>
<text font-family="Dialog" font-size="12" font-weight="bold" x="597" y="542">
Start Combustion</text>
<line fill="#000000" stroke="#000000" stroke-width="1" x1="593" x2="589" y1="554" y2="555"/>
<line fill="#000000" stroke="#000000" stroke-width="1" x1="584" x2="579" y1="556" y2="557"/>
<line fill="#000000" stroke="#000000" stroke-width="1" x1="574" x2="569" y1="559" y2="560"/>
<line fill="#000000" stroke="#000000" stroke-width="1" x1="564" x2="559" y1="561" y2="563"/>
<line fill="#000000" stroke="#000000" stroke-width="1" x1="555" x2="550" y1="564" y2="565"/>
<line fill="#000000" stroke="#000000" stroke-width="1" x1="545" x2="540" y1="566" y2="568"/>
<line fill="#000000" stroke="#000000" stroke-width="1" x1="535" x2="530" y1="569" y2="570"/>
<line fill="#000000" stroke="#000000" stroke-width="1" x1="525" x2="521" y1="572" y2="573"/>
<line fill="#000000" stroke="#000000" stroke-width="1" x1="516" x2="511" y1="574" y2="576"/>
<line fill="#000000" stroke="#000000" stroke-width="1" x1="506" x2="501" y1="577" y2="578"/>
<line fill="#000000" stroke="#000000" stroke-width="1" x1="496" x2="491" y1="579" y2="581"/>
<line fill="#000000" stroke="#000000" stroke-width="1" x1="486" x2="484" y1="582" y2="583"/>
<line fill="#000000" stroke="#000000" stroke-width="1" x1="493" x2="484" y1="573" y2="583"/>
<line fill="#000000" stroke="#000000" stroke-width="1" x1="497" x2="484" y1="586" y2="583"/>
<text font-family="Dialog" font-size="12" x="501" y="556">
&lt;&lt;include&gt;&gt;</text>
<line fill="#000000" stroke="#000000" stroke-width="1" x1="394" x2="391" y1="680" y2="677"/>
<line fill="#000000" stroke="#000000" stroke-width="1" x1="387" x2="383" y1="674" y2="671"/>
<line fill="#000000" stroke="#000000" stroke-width="1" x1="379" x2="375" y1="668" y2="665"/>
<line fill="#000000" stroke="#000000" stroke-width="1" x1="371" x2="367" y1="662" y2="659"/>
<line fill="#000000" stroke="#000000" stroke-width="1" x1="363" x2="359" y1="655" y2="652"/>
<line fill="#000000" stroke="#000000" stroke-width="1" x1="355" x2="351" y1="649" y2="646"/>
<line fill="#000000" stroke="#000000" stroke-width="1" x1="347" x2="344" y1="643" y2="640"/>
<line fill="#000000" stroke="#000000" stroke-width="1" x1="340" x2="336" y1="637" y2="634"/>
<line fill="#000000" stroke="#000000" stroke-width="1" x1="332" x2="328" y1="630" y2="627"/>
<line fill="#000000" stroke="#000000" stroke-width="1" x1="324" x2="320" y1="624" y2="621"/>
<line fill="#000000" stroke="#000000" stroke-width="1" x1="316" x2="312" y1="618" y2="615"/>
<line fill="#000000" stroke="#000000" stroke-width="1" x1="308" x2="304" y1="612" y2="608"/>
<line fill="#000000" stroke="#000000" stroke-width="1" x1="300" x2="297" y1="605" y2="602"/>
<line fill="#000000" stroke="#000000" stroke-width="1" x1="293" x2="289" y1="599" y2="596"/>
<line fill="#000000" stroke="#000000" stroke-width="1" x1="285" x2="281" y1="593" y2="590"/>
<line fill="#000000" stroke="#000000" stroke-width="1" x1="277" x2="273" y1="587" y2="583"/>
<line fill="#000000" stroke="#000000" stroke-width="1" x1="269" x2="265" y1="580" y2="577"/>
<line fill="#000000" stroke="#000000" stroke-width="1" x1="261" x2="257" y1="574" y2="571"/>
<line fill="#000000" stroke="#000000" stroke-width="1" x1="253" x2="249" y1="568" y2="565"/>
<line fill="#000000" stroke="#000000" stroke-width="1" x1="246" x2="242" y1="562" y2="558"/>
<line fill="#000000" stroke="#000000" stroke-width="1" x1="238" x2="234" y1="555" y2="552"/>
<line fill="#000000" stroke="#000000" stroke-width="1" x1="230" x2="226" y1="549" y2="546"/>
<line fill="#000000" stroke="#000000" stroke-width="1" x1="222" x2="220" y1="543" y2="541"/>
<line fill="#000000" stroke="#000000" stroke-width="1" x1="233" x2="220" y1="543" y2="541"/>
<line fill="#000000" stroke="#000000" stroke-width="1" x1="225" x2="220" y1="553" y2="541"/>
<text font-family="Dialog" font-size="12" x="293" y="592">
&lt;&lt;include&gt;&gt;</text>
<ellipse cx="663" cy="639" fill="#000000" rx="73.0" ry="25.0" stroke="#000000" stroke-width="1"/>
<ellipse cx="663" cy="639" fill="#ffffff" rx="72.0" ry="24.0" stroke="#ffffff" stroke-width="1"/>
<text font-family="Dialog" font-size="12" font-weight="bold" x="605" y="640">
View CO2 prediction</text>
<line fill="#000000" stroke="#000000" stroke-width="1" x1="597" x2="593" y1="627" y2="627"/>
<line fill="#000000" stroke="#000000" stroke-width="1" x1="588" x2="583" y1="626" y2="625"/>
<line fill="#000000" stroke="#000000" stroke-width="1" x1="578" x2="573" y1="624" y2="623"/>
<line fill="#000000" stroke="#000000" stroke-width="1" x1="568" x2="563" y1="622" y2="621"/>
<line fill="#000000" stroke="#000000" stroke-width="1" x1="558" x2="553" y1="620" y2="619"/>
<line fill="#000000" stroke="#000000" stroke-width="1" x1="548" x2="543" y1="619" y2="618"/>
<line fill="#000000" stroke="#000000" stroke-width="1" x1="538" x2="533" y1="617" y2="616"/>
<line fill="#000000" stroke="#000000" stroke-width="1" x1="528" x2="523" y1="615" y2="614"/>
<line fill="#000000" stroke="#000000" stroke-width="1" x1="518" x2="513" y1="613" y2="612"/>
<line fill="#000000" stroke="#000000" stroke-width="1" x1="508" x2="503" y1="611" y2="610"/>
<line fill="#000000" stroke="#000000" stroke-width="1" x1="498" x2="493" y1="610" y2="609"/>
<line fill="#000000" stroke="#000000" stroke-width="1" x1="505" x2="492" y1="603" y2="608"/>
<line fill="#000000" stroke="#000000" stroke-width="1" x1="502" x2="492" y1="617" y2="608"/>
<text font-family="Dialog" font-size="12" x="514" y="606">
&lt;&lt;include&gt;&gt;</text>
<ellipse cx="423" cy="818" fill="#000000" rx="89.0" ry="28.0" stroke="#000000" stroke-width="1"/>
<ellipse cx="423" cy="818" fill="#ffffff" rx="88.0" ry="27.0" stroke="#ffffff" stroke-width="1"/>
<text font-family="Dialog" font-size="12" font-weight="bold" x="349" y="819">
View Combustion Reports</text>
<line fill="#000000" stroke="#000000" stroke-width="1" x1="402" x2="399" y1="790" y2="787"/>
<line fill="#000000" stroke="#000000" stroke-width="1" x1="396" x2="393" y1="783" y2="779"/>
<line fill="#000000" stroke="#000000" stroke-width="1" x1="390" x2="387" y1="775" y2="771"/>
<line fill="#000000" stroke="#000000" stroke-width="1" x1="384" x2="381" y1="767" y2="763"/>
<line fill="#000000" stroke="#000000" stroke-width="1" x1="378" x2="375" y1="759" y2="755"/>
<line fill="#000000" stroke="#000000" stroke-width="1" x1="372" x2="369" y1="751" y2="747"/>
<line fill="#000000" stroke="#000000" stroke-width="1" x1="366" x2="363" y1="743" y2="739"/>
<line fill="#000000" stroke="#000000" stroke-width="1" x1="360" x2="357" y1="735" y2="731"/>
<line fill="#000000" stroke="#000000" stroke-width="1" x1="354" x2="351" y1="727" y2="723"/>
<line fill="#000000" stroke="#000000" stroke-width="1" x1="348" x2="344" y1="719" y2="715"/>
<line fill="#000000" stroke="#000000" stroke-width="1" x1="341" x2="338" y1="711" y2="707"/>
<line fill="#000000" stroke="#000000" stroke-width="1" x1="335" x2="332" y1="703" y2="699"/>
<line fill="#000000" stroke="#000000" stroke-width="1" x1="329" x2="326" y1="695" y2="691"/>
<line fill="#000000" stroke="#000000" stroke-width="1" x1="323" x2="320" y1="687" y2="683"/>
<line fill="#000000" stroke="#000000" stroke-width="1" x1="317" x2="314" y1="679" y2="675"/>
<line fill="#000000" stroke="#000000" stroke-width="1" x1="311" x2="308" y1="671" y2="667"/>
<line fill="#000000" stroke="#000000" stroke-width="1" x1="305" x2="302" y1="663" y2="659"/>
<line fill="#000000" stroke="#000000" stroke-width="1" x1="299" x2="296" y1="655" y2="652"/>
<line fill="#000000" stroke="#000000" stroke-width="1" x1="293" x2="289" y1="648" y2="644"/>
<line fill="#000000" stroke="#000000" stroke-width="1" x1="286" x2="283" y1="640" y2="636"/>
<line fill="#000000" stroke="#000000" stroke-width="1" x1="280" x2="277" y1="632" y2="628"/>
<line fill="#000000" stroke="#000000" stroke-width="1" x1="274" x2="271" y1="624" y2="620"/>
<line fill="#000000" stroke="#000000" stroke-width="1" x1="268" x2="265" y1="616" y2="612"/>
<line fill="#000000" stroke="#000000" stroke-width="1" x1="262" x2="259" y1="608" y2="604"/>
<line fill="#000000" stroke="#000000" stroke-width="1" x1="256" x2="253" y1="600" y2="596"/>
<line fill="#000000" stroke="#000000" stroke-width="1" x1="250" x2="247" y1="592" y2="588"/>
<line fill="#000000" stroke="#000000" stroke-width="1" x1="244" x2="241" y1="584" y2="580"/>
<line fill="#000000" stroke="#000000" stroke-width="1" x1="238" x2="234" y1="576" y2="572"/>
<line fill="#000000" stroke="#000000" stroke-width="1" x1="231" x2="228" y1="568" y2="564"/>
<line fill="#000000" stroke="#000000" stroke-width="1" x1="225" x2="222" y1="560" y2="556"/>
<line fill="#000000" stroke="#000000" stroke-width="1" x1="219" x2="216" y1="552" y2="548"/>
<line fill="#000000" stroke="#000000" stroke-width="1" x1="213" x2="212" y1="544" y2="543"/>
<line fill="#000000" stroke="#000000" stroke-width="1" x1="224" x2="212" y1="548" y2="543"/>
<line fill="#000000" stroke="#000000" stroke-width="1" x1="213" x2="212" y1="556" y2="543"/>
<text font-family="Dialog" font-size="12" x="300" y="652">
&lt;&lt;include&gt;&gt;</text>
</svg>
