<?xml version="1.0" encoding="utf-8" ?>
<!DOCTYPE svg PUBLIC "-//W3C//DTD SVG 1.1//EN" "http://www.w3.org/Graphics/SVG/1.1/DTD/svg11.dtd">
<svg height="764" version="1.1" width="750" xmlns="http://www.w3.org/2000/svg">
<text font-family="Dialog" font-size="12" font-weight="bold" x="19" y="499">
Operator</text>
<ellipse cx="44" cy="447" fill="#000000" rx="8.0" ry="7.5" stroke="#000000" stroke-width="1"/>
<ellipse cx="44" cy="447" fill="#ffffff" rx="7.0" ry="6.5" stroke="#ffffff" stroke-width="1"/>
<line fill="#000000" stroke="#000000" stroke-width="1" x1="44" x2="44" y1="455" y2="470"/>
<line fill="#000000" stroke="#000000" stroke-width="1" x1="34" x2="54" y1="460" y2="460"/>
<line fill="#000000" stroke="#000000" stroke-width="1" x1="44" x2="39" y1="470" y2="485"/>
<line fill="#000000" stroke="#000000" stroke-width="1" x1="44" x2="49" y1="470" y2="485"/>
<text font-family="Dialog" font-size="12" font-weight="bold" x="19" y="131">
Deliverer</text>
<ellipse cx="44" cy="79" fill="#000000" rx="8.0" ry="7.5" stroke="#000000" stroke-width="1"/>
<ellipse cx="44" cy="79" fill="#ffffff" rx="7.0" ry="6.5" stroke="#ffffff" stroke-width="1"/>
<line fill="#000000" stroke="#000000" stroke-width="1" x1="44" x2="44" y1="87" y2="102"/>
<line fill="#000000" stroke="#000000" stroke-width="1" x1="34" x2="54" y1="92" y2="92"/>
<line fill="#000000" stroke="#000000" stroke-width="1" x1="44" x2="39" y1="102" y2="117"/>
<line fill="#000000" stroke="#000000" stroke-width="1" x1="44" x2="49" y1="102" y2="117"/>
<ellipse cx="213" cy="107" fill="#000000" rx="55.0" ry="21.0" stroke="#000000" stroke-width="1"/>
<ellipse cx="213" cy="107" fill="#ffffff" rx="54.0" ry="20.0" stroke="#ffffff" stroke-width="1"/>
<text font-family="Dialog" font-size="12" font-weight="bold" x="197" y="108">
Login</text>
<polyline fill="none" points="54,92 159,101" stroke="#000000" stroke-width="1"/>
<text font-family="Dialog" font-size="12" x="77" y="77">
 </text>
<ellipse cx="429" cy="112" fill="#000000" rx="79.0" ry="26.0" stroke="#000000" stroke-width="1"/>
<ellipse cx="429" cy="112" fill="#ffffff" rx="78.0" ry="25.0" stroke="#ffffff" stroke-width="1"/>
<text font-family="Dialog" font-size="12" font-weight="bold" x="365" y="113">
Create Delivery Report</text>
<ellipse cx="632" cy="37" fill="#000000" rx="66.0" ry="23.0" stroke="#000000" stroke-width="1"/>
<ellipse cx="632" cy="37" fill="#ffffff" rx="65.0" ry="22.0" stroke="#ffffff" stroke-width="1"/>
<text font-family="Dialog" font-size="12" font-weight="bold" x="581" y="38">
Save as Template</text>
<ellipse cx="631" cy="188" fill="#000000" rx="57.0" ry="22.0" stroke="#000000" stroke-width="1"/>
<ellipse cx="631" cy="188" fill="#ffffff" rx="56.0" ry="21.0" stroke="#ffffff" stroke-width="1"/>
<text font-family="Dialog" font-size="12" font-weight="bold" x="590" y="189">
Submit Report</text>
<ellipse cx="197" cy="427" fill="#000000" rx="55.0" ry="21.0" stroke="#000000" stroke-width="1"/>
<ellipse cx="197" cy="427" fill="#ffffff" rx="54.0" ry="20.0" stroke="#ffffff" stroke-width="1"/>
<text font-family="Dialog" font-size="12" font-weight="bold" x="181" y="428">
Login</text>
<line fill="#000000" stroke="#000000" stroke-width="1" x1="350" x2="345" y1="109" y2="109"/>
<line fill="#000000" stroke="#000000" stroke-width="1" x1="340" x2="335" y1="109" y2="109"/>
<line fill="#000000" stroke="#000000" stroke-width="1" x1="330" x2="325" y1="109" y2="109"/>
<line fill="#000000" stroke="#000000" stroke-width="1" x1="320" x2="315" y1="109" y2="109"/>
<line fill="#000000" stroke="#000000" stroke-width="1" x1="310" x2="305" y1="109" y2="109"/>
<line fill="#000000" stroke="#000000" stroke-width="1" x1="300" x2="295" y1="109" y2="109"/>
<line fill="#000000" stroke="#000000" stroke-width="1" x1="290" x2="285" y1="109" y2="109"/>
<line fill="#000000" stroke="#000000" stroke-width="1" x1="280" x2="275" y1="109" y2="109"/>
<line fill="#000000" stroke="#000000" stroke-width="1" x1="270" x2="267" y1="109" y2="109"/>
<line fill="#000000" stroke="#000000" stroke-width="1" x1="279" x2="267" y1="102" y2="109"/>
<line fill="#000000" stroke="#000000" stroke-width="1" x1="279" x2="267" y1="116" y2="109"/>
<text font-family="Dialog" font-size="12" x="275" y="104">
&lt;&lt;include&gt;&gt;</text>
<line fill="#000000" stroke="#000000" stroke-width="1" x1="587" x2="583" y1="53" y2="54"/>
<line fill="#000000" stroke="#000000" stroke-width="1" x1="578" x2="573" y1="56" y2="58"/>
<line fill="#000000" stroke="#000000" stroke-width="1" x1="569" x2="564" y1="59" y2="61"/>
<line fill="#000000" stroke="#000000" stroke-width="1" x1="559" x2="554" y1="63" y2="65"/>
<line fill="#000000" stroke="#000000" stroke-width="1" x1="550" x2="545" y1="66" y2="68"/>
<line fill="#000000" stroke="#000000" stroke-width="1" x1="540" x2="535" y1="70" y2="72"/>
<line fill="#000000" stroke="#000000" stroke-width="1" x1="531" x2="526" y1="73" y2="75"/>
<line fill="#000000" stroke="#000000" stroke-width="1" x1="521" x2="517" y1="77" y2="79"/>
<line fill="#000000" stroke="#000000" stroke-width="1" x1="512" x2="507" y1="80" y2="82"/>
<line fill="#000000" stroke="#000000" stroke-width="1" x1="502" x2="498" y1="84" y2="86"/>
<line fill="#000000" stroke="#000000" stroke-width="1" x1="493" x2="488" y1="87" y2="89"/>
<line fill="#000000" stroke="#000000" stroke-width="1" x1="483" x2="481" y1="91" y2="92"/>
<line fill="#000000" stroke="#000000" stroke-width="1" x1="489" x2="481" y1="81" y2="92"/>
<line fill="#000000" stroke="#000000" stroke-width="1" x1="494" x2="481" y1="94" y2="92"/>
<text font-family="Dialog" font-size="12" x="493" y="57">
&lt;&lt;include&gt;&gt;</text>
<line fill="#000000" stroke="#000000" stroke-width="1" x1="589" x2="585" y1="172" y2="171"/>
<line fill="#000000" stroke="#000000" stroke-width="1" x1="580" x2="575" y1="169" y2="167"/>
<line fill="#000000" stroke="#000000" stroke-width="1" x1="571" x2="566" y1="165" y2="164"/>
<line fill="#000000" stroke="#000000" stroke-width="1" x1="561" x2="557" y1="162" y2="160"/>
<line fill="#000000" stroke="#000000" stroke-width="1" x1="552" x2="547" y1="158" y2="156"/>
<line fill="#000000" stroke="#000000" stroke-width="1" x1="543" x2="538" y1="155" y2="153"/>
<line fill="#000000" stroke="#000000" stroke-width="1" x1="533" x2="528" y1="151" y2="149"/>
<line fill="#000000" stroke="#000000" stroke-width="1" x1="524" x2="519" y1="148" y2="146"/>
<line fill="#000000" stroke="#000000" stroke-width="1" x1="514" x2="510" y1="144" y2="142"/>
<line fill="#000000" stroke="#000000" stroke-width="1" x1="505" x2="500" y1="140" y2="139"/>
<line fill="#000000" stroke="#000000" stroke-width="1" x1="496" x2="491" y1="137" y2="135"/>
<line fill="#000000" stroke="#000000" stroke-width="1" x1="486" x2="481" y1="133" y2="131"/>
<line fill="#000000" stroke="#000000" stroke-width="1" x1="494" x2="481" y1="128" y2="131"/>
<line fill="#000000" stroke="#000000" stroke-width="1" x1="489" x2="481" y1="141" y2="131"/>
<text font-family="Dialog" font-size="12" x="509" y="137">
&lt;&lt;include&gt;&gt;</text>
<polyline fill="none" points="145,434 53,447" stroke="#000000" stroke-width="1"/>
<text font-family="Dialog" font-size="12" x="65" y="421">
 </text>
<ellipse cx="355" cy="288" fill="#000000" rx="77.0" ry="26.0" stroke="#000000" stroke-width="1"/>
<ellipse cx="355" cy="288" fill="#ffffff" rx="76.0" ry="25.0" stroke="#ffffff" stroke-width="1"/>
<text font-family="Dialog" font-size="12" font-weight="bold" x="293" y="289">
View Delivery Reports</text>
<line fill="#000000" stroke="#000000" stroke-width="1" x1="327" x2="324" y1="312" y2="315"/>
<line fill="#000000" stroke="#000000" stroke-width="1" x1="320" x2="316" y1="318" y2="321"/>
<line fill="#000000" stroke="#000000" stroke-width="1" x1="312" x2="309" y1="325" y2="328"/>
<line fill="#000000" stroke="#000000" stroke-width="1" x1="305" x2="301" y1="331" y2="335"/>
<line fill="#000000" stroke="#000000" stroke-width="1" x1="297" x2="293" y1="338" y2="341"/>
<line fill="#000000" stroke="#000000" stroke-width="1" x1="290" x2="286" y1="344" y2="348"/>
<line fill="#000000" stroke="#000000" stroke-width="1" x1="282" x2="278" y1="351" y2="354"/>
<line fill="#000000" stroke="#000000" stroke-width="1" x1="275" x2="271" y1="358" y2="361"/>
<line fill="#000000" stroke="#000000" stroke-width="1" x1="267" x2="263" y1="364" y2="368"/>
<line fill="#000000" stroke="#000000" stroke-width="1" x1="259" x2="256" y1="371" y2="374"/>
<line fill="#000000" stroke="#000000" stroke-width="1" x1="252" x2="248" y1="377" y2="381"/>
<line fill="#000000" stroke="#000000" stroke-width="1" x1="244" x2="240" y1="384" y2="387"/>
<line fill="#000000" stroke="#000000" stroke-width="1" x1="237" x2="233" y1="391" y2="394"/>
<line fill="#000000" stroke="#000000" stroke-width="1" x1="229" x2="225" y1="397" y2="401"/>
<line fill="#000000" stroke="#000000" stroke-width="1" x1="222" x2="218" y1="404" y2="407"/>
<line fill="#000000" stroke="#000000" stroke-width="1" x1="222" x2="218" y1="393" y2="407"/>
<line fill="#000000" stroke="#000000" stroke-width="1" x1="231" x2="218" y1="404" y2="407"/>
<text font-family="Dialog" font-size="12" x="219" y="340">
&lt;&lt;include&gt;&gt;</text>
<ellipse cx="423" cy="399" fill="#000000" rx="73.0" ry="25.0" stroke="#000000" stroke-width="1"/>
<ellipse cx="423" cy="399" fill="#ffffff" rx="72.0" ry="24.0" stroke="#ffffff" stroke-width="1"/>
<text font-family="Dialog" font-size="12" font-weight="bold" x="365" y="400">
View Waste Storage</text>
<line fill="#000000" stroke="#000000" stroke-width="1" x1="354" x2="349" y1="408" y2="408"/>
<line fill="#000000" stroke="#000000" stroke-width="1" x1="344" x2="339" y1="409" y2="409"/>
<line fill="#000000" stroke="#000000" stroke-width="1" x1="334" x2="329" y1="410" y2="410"/>
<line fill="#000000" stroke="#000000" stroke-width="1" x1="324" x2="319" y1="411" y2="412"/>
<line fill="#000000" stroke="#000000" stroke-width="1" x1="314" x2="309" y1="412" y2="413"/>
<line fill="#000000" stroke="#000000" stroke-width="1" x1="304" x2="299" y1="413" y2="414"/>
<line fill="#000000" stroke="#000000" stroke-width="1" x1="294" x2="289" y1="414" y2="415"/>
<line fill="#000000" stroke="#000000" stroke-width="1" x1="284" x2="279" y1="416" y2="416"/>
<line fill="#000000" stroke="#000000" stroke-width="1" x1="274" x2="269" y1="417" y2="417"/>
<line fill="#000000" stroke="#000000" stroke-width="1" x1="264" x2="259" y1="418" y2="418"/>
<line fill="#000000" stroke="#000000" stroke-width="1" x1="254" x2="249" y1="419" y2="420"/>
<line fill="#000000" stroke="#000000" stroke-width="1" x1="260" x2="249" y1="411" y2="420"/>
<line fill="#000000" stroke="#000000" stroke-width="1" x1="261" x2="249" y1="425" y2="420"/>
<text font-family="Dialog" font-size="12" x="267" y="405">
&lt;&lt;include&gt;&gt;</text>
<ellipse cx="429" cy="502" fill="#000000" rx="71.0" ry="24.0" stroke="#000000" stroke-width="1"/>
<ellipse cx="429" cy="502" fill="#ffffff" rx="70.0" ry="23.0" stroke="#ffffff" stroke-width="1"/>
<text font-family="Dialog" font-size="12" font-weight="bold" x="374" y="503">
Create Combustion</text>
<line fill="#000000" stroke="#000000" stroke-width="1" x1="377" x2="373" y1="485" y2="484"/>
<line fill="#000000" stroke="#000000" stroke-width="1" x1="368" x2="363" y1="482" y2="481"/>
<line fill="#000000" stroke="#000000" stroke-width="1" x1="358" x2="354" y1="479" y2="478"/>
<line fill="#000000" stroke="#000000" stroke-width="1" x1="349" x2="344" y1="476" y2="475"/>
<line fill="#000000" stroke="#000000" stroke-width="1" x1="339" x2="335" y1="473" y2="472"/>
<line fill="#000000" stroke="#000000" stroke-width="1" x1="330" x2="325" y1="470" y2="468"/>
<line fill="#000000" stroke="#000000" stroke-width="1" x1="320" x2="316" y1="467" y2="465"/>
<line fill="#000000" stroke="#000000" stroke-width="1" x1="311" x2="306" y1="464" y2="462"/>
<line fill="#000000" stroke="#000000" stroke-width="1" x1="301" x2="297" y1="461" y2="459"/>
<line fill="#000000" stroke="#000000" stroke-width="1" x1="292" x2="287" y1="458" y2="456"/>
<line fill="#000000" stroke="#000000" stroke-width="1" x1="282" x2="278" y1="454" y2="453"/>
<line fill="#000000" stroke="#000000" stroke-width="1" x1="273" x2="268" y1="451" y2="450"/>
<line fill="#000000" stroke="#000000" stroke-width="1" x1="263" x2="259" y1="448" y2="447"/>
<line fill="#000000" stroke="#000000" stroke-width="1" x1="254" x2="249" y1="445" y2="444"/>
<line fill="#000000" stroke="#000000" stroke-width="1" x1="244" x2="239" y1="442" y2="440"/>
<line fill="#000000" stroke="#000000" stroke-width="1" x1="252" x2="239" y1="437" y2="440"/>
<line fill="#000000" stroke="#000000" stroke-width="1" x1="248" x2="239" y1="450" y2="440"/>
<text font-family="Dialog" font-size="12" x="281" y="449">
&lt;&lt;include&gt;&gt;</text>
<ellipse cx="421" cy="605" fill="#000000" rx="63.0" ry="23.0" stroke="#000000" stroke-width="1"/>
<ellipse cx="421" cy="605" fill="#ffffff" rx="62.0" ry="22.0" stroke="#ffffff" stroke-width="1"/>
<text font-family="Dialog" font-size="12" font-weight="bold" x="375" y="606">
End Combustion</text>
<ellipse cx="647" cy="445" fill="#000000" rx="65.0" ry="23.0" stroke="#000000" stroke-width="1"/>
<ellipse cx="647" cy="445" fill="#ffffff" rx="64.0" ry="22.0" stroke="#ffffff" stroke-width="1"/>
<text font-family="Dialog" font-size="12" font-weight="bold" x="597" y="446">
Start Combustion</text>
<line fill="#000000" stroke="#000000" stroke-width="1" x1="595" x2="591" y1="458" y2="459"/>
<line fill="#000000" stroke="#000000" stroke-width="1" x1="586" x2="581" y1="460" y2="461"/>
<line fill="#000000" stroke="#000000" stroke-width="1" x1="576" x2="571" y1="463" y2="464"/>
<line fill="#000000" stroke="#000000" stroke-width="1" x1="566" x2="561" y1="465" y2="466"/>
<line fill="#000000" stroke="#000000" stroke-width="1" x1="557" x2="552" y1="468" y2="469"/>
<line fill="#000000" stroke="#000000" stroke-width="1" x1="547" x2="542" y1="470" y2="471"/>
<line fill="#000000" stroke="#000000" stroke-width="1" x1="537" x2="532" y1="473" y2="474"/>
<line fill="#000000" stroke="#000000" stroke-width="1" x1="527" x2="522" y1="475" y2="477"/>
<line fill="#000000" stroke="#000000" stroke-width="1" x1="518" x2="513" y1="478" y2="479"/>
<line fill="#000000" stroke="#000000" stroke-width="1" x1="508" x2="503" y1="480" y2="482"/>
<line fill="#000000" stroke="#000000" stroke-width="1" x1="498" x2="493" y1="483" y2="484"/>
<line fill="#000000" stroke="#000000" stroke-width="1" x1="488" x2="484" y1="485" y2="487"/>
<line fill="#000000" stroke="#000000" stroke-width="1" x1="493" x2="484" y1="477" y2="487"/>
<line fill="#000000" stroke="#000000" stroke-width="1" x1="497" x2="484" y1="490" y2="487"/>
<text font-family="Dialog" font-size="12" x="502" y="460">
&lt;&lt;include&gt;&gt;</text>
<line fill="#000000" stroke="#000000" stroke-width="1" x1="394" x2="391" y1="584" y2="581"/>
<line fill="#000000" stroke="#000000" stroke-width="1" x1="387" x2="383" y1="578" y2="575"/>
<line fill="#000000" stroke="#000000" stroke-width="1" x1="379" x2="375" y1="572" y2="569"/>
<line fill="#000000" stroke="#000000" stroke-width="1" x1="371" x2="367" y1="566" y2="563"/>
<line fill="#000000" stroke="#000000" stroke-width="1" x1="363" x2="359" y1="559" y2="556"/>
<line fill="#000000" stroke="#000000" stroke-width="1" x1="355" x2="351" y1="553" y2="550"/>
<line fill="#000000" stroke="#000000" stroke-width="1" x1="347" x2="344" y1="547" y2="544"/>
<line fill="#000000" stroke="#000000" stroke-width="1" x1="340" x2="336" y1="541" y2="538"/>
<line fill="#000000" stroke="#000000" stroke-width="1" x1="332" x2="328" y1="534" y2="531"/>
<line fill="#000000" stroke="#000000" stroke-width="1" x1="324" x2="320" y1="528" y2="525"/>
<line fill="#000000" stroke="#000000" stroke-width="1" x1="316" x2="312" y1="522" y2="519"/>
<line fill="#000000" stroke="#000000" stroke-width="1" x1="308" x2="304" y1="516" y2="512"/>
<line fill="#000000" stroke="#000000" stroke-width="1" x1="300" x2="297" y1="509" y2="506"/>
<line fill="#000000" stroke="#000000" stroke-width="1" x1="293" x2="289" y1="503" y2="500"/>
<line fill="#000000" stroke="#000000" stroke-width="1" x1="285" x2="281" y1="497" y2="494"/>
<line fill="#000000" stroke="#000000" stroke-width="1" x1="277" x2="273" y1="491" y2="487"/>
<line fill="#000000" stroke="#000000" stroke-width="1" x1="269" x2="265" y1="484" y2="481"/>
<line fill="#000000" stroke="#000000" stroke-width="1" x1="261" x2="257" y1="478" y2="475"/>
<line fill="#000000" stroke="#000000" stroke-width="1" x1="253" x2="249" y1="472" y2="469"/>
<line fill="#000000" stroke="#000000" stroke-width="1" x1="246" x2="242" y1="466" y2="462"/>
<line fill="#000000" stroke="#000000" stroke-width="1" x1="238" x2="234" y1="459" y2="456"/>
<line fill="#000000" stroke="#000000" stroke-width="1" x1="230" x2="226" y1="453" y2="450"/>
<line fill="#000000" stroke="#000000" stroke-width="1" x1="222" x2="220" y1="447" y2="445"/>
<line fill="#000000" stroke="#000000" stroke-width="1" x1="233" x2="220" y1="447" y2="445"/>
<line fill="#000000" stroke="#000000" stroke-width="1" x1="225" x2="220" y1="457" y2="445"/>
<text font-family="Dialog" font-size="12" x="293" y="496">
&lt;&lt;include&gt;&gt;</text>
<ellipse cx="663" cy="543" fill="#000000" rx="73.0" ry="25.0" stroke="#000000" stroke-width="1"/>
<ellipse cx="663" cy="543" fill="#ffffff" rx="72.0" ry="24.0" stroke="#ffffff" stroke-width="1"/>
<text font-family="Dialog" font-size="12" font-weight="bold" x="605" y="544">
View CO2 prediction</text>
<line fill="#000000" stroke="#000000" stroke-width="1" x1="596" x2="592" y1="532" y2="532"/>
<line fill="#000000" stroke="#000000" stroke-width="1" x1="587" x2="582" y1="531" y2="530"/>
<line fill="#000000" stroke="#000000" stroke-width="1" x1="577" x2="572" y1="529" y2="528"/>
<line fill="#000000" stroke="#000000" stroke-width="1" x1="567" x2="562" y1="527" y2="526"/>
<line fill="#000000" stroke="#000000" stroke-width="1" x1="557" x2="552" y1="525" y2="524"/>
<line fill="#000000" stroke="#000000" stroke-width="1" x1="547" x2="542" y1="524" y2="523"/>
<line fill="#000000" stroke="#000000" stroke-width="1" x1="537" x2="532" y1="522" y2="521"/>
<line fill="#000000" stroke="#000000" stroke-width="1" x1="527" x2="522" y1="520" y2="519"/>
<line fill="#000000" stroke="#000000" stroke-width="1" x1="517" x2="512" y1="518" y2="517"/>
<line fill="#000000" stroke="#000000" stroke-width="1" x1="507" x2="502" y1="516" y2="515"/>
<line fill="#000000" stroke="#000000" stroke-width="1" x1="497" x2="492" y1="515" y2="514"/>
<line fill="#000000" stroke="#000000" stroke-width="1" x1="504" x2="491" y1="508" y2="513"/>
<line fill="#000000" stroke="#000000" stroke-width="1" x1="501" x2="491" y1="522" y2="513"/>
<text font-family="Dialog" font-size="12" x="513" y="511">
&lt;&lt;include&gt;&gt;</text>
<ellipse cx="423" cy="722" fill="#000000" rx="89.0" ry="28.0" stroke="#000000" stroke-width="1"/>
<ellipse cx="423" cy="722" fill="#ffffff" rx="88.0" ry="27.0" stroke="#ffffff" stroke-width="1"/>
<text font-family="Dialog" font-size="12" font-weight="bold" x="349" y="723">
View Combustion Reports</text>
<line fill="#000000" stroke="#000000" stroke-width="1" x1="402" x2="399" y1="694" y2="691"/>
<line fill="#000000" stroke="#000000" stroke-width="1" x1="396" x2="393" y1="687" y2="683"/>
<line fill="#000000" stroke="#000000" stroke-width="1" x1="390" x2="387" y1="679" y2="675"/>
<line fill="#000000" stroke="#000000" stroke-width="1" x1="384" x2="381" y1="671" y2="667"/>
<line fill="#000000" stroke="#000000" stroke-width="1" x1="378" x2="375" y1="663" y2="659"/>
<line fill="#000000" stroke="#000000" stroke-width="1" x1="372" x2="369" y1="655" y2="651"/>
<line fill="#000000" stroke="#000000" stroke-width="1" x1="366" x2="363" y1="647" y2="643"/>
<line fill="#000000" stroke="#000000" stroke-width="1" x1="360" x2="357" y1="639" y2="635"/>
<line fill="#000000" stroke="#000000" stroke-width="1" x1="354" x2="351" y1="631" y2="627"/>
<line fill="#000000" stroke="#000000" stroke-width="1" x1="348" x2="344" y1="623" y2="619"/>
<line fill="#000000" stroke="#000000" stroke-width="1" x1="341" x2="338" y1="615" y2="611"/>
<line fill="#000000" stroke="#000000" stroke-width="1" x1="335" x2="332" y1="607" y2="603"/>
<line fill="#000000" stroke="#000000" stroke-width="1" x1="329" x2="326" y1="599" y2="595"/>
<line fill="#000000" stroke="#000000" stroke-width="1" x1="323" x2="320" y1="591" y2="587"/>
<line fill="#000000" stroke="#000000" stroke-width="1" x1="317" x2="314" y1="583" y2="579"/>
<line fill="#000000" stroke="#000000" stroke-width="1" x1="311" x2="308" y1="575" y2="571"/>
<line fill="#000000" stroke="#000000" stroke-width="1" x1="305" x2="302" y1="567" y2="563"/>
<line fill="#000000" stroke="#000000" stroke-width="1" x1="299" x2="296" y1="559" y2="556"/>
<line fill="#000000" stroke="#000000" stroke-width="1" x1="293" x2="289" y1="552" y2="548"/>
<line fill="#000000" stroke="#000000" stroke-width="1" x1="286" x2="283" y1="544" y2="540"/>
<line fill="#000000" stroke="#000000" stroke-width="1" x1="280" x2="277" y1="536" y2="532"/>
<line fill="#000000" stroke="#000000" stroke-width="1" x1="274" x2="271" y1="528" y2="524"/>
<line fill="#000000" stroke="#000000" stroke-width="1" x1="268" x2="265" y1="520" y2="516"/>
<line fill="#000000" stroke="#000000" stroke-width="1" x1="262" x2="259" y1="512" y2="508"/>
<line fill="#000000" stroke="#000000" stroke-width="1" x1="256" x2="253" y1="504" y2="500"/>
<line fill="#000000" stroke="#000000" stroke-width="1" x1="250" x2="247" y1="496" y2="492"/>
<line fill="#000000" stroke="#000000" stroke-width="1" x1="244" x2="241" y1="488" y2="484"/>
<line fill="#000000" stroke="#000000" stroke-width="1" x1="238" x2="234" y1="480" y2="476"/>
<line fill="#000000" stroke="#000000" stroke-width="1" x1="231" x2="228" y1="472" y2="468"/>
<line fill="#000000" stroke="#000000" stroke-width="1" x1="225" x2="222" y1="464" y2="460"/>
<line fill="#000000" stroke="#000000" stroke-width="1" x1="219" x2="216" y1="456" y2="452"/>
<line fill="#000000" stroke="#000000" stroke-width="1" x1="213" x2="212" y1="448" y2="447"/>
<line fill="#000000" stroke="#000000" stroke-width="1" x1="224" x2="212" y1="452" y2="447"/>
<line fill="#000000" stroke="#000000" stroke-width="1" x1="213" x2="212" y1="460" y2="447"/>
<text font-family="Dialog" font-size="12" x="300" y="556">
&lt;&lt;include&gt;&gt;</text>
</svg>
