<?xml version="1.0" encoding="utf-8" ?>
<!DOCTYPE svg PUBLIC "-//W3C//DTD SVG 1.1//EN" "http://www.w3.org/Graphics/SVG/1.1/DTD/svg11.dtd">
<svg height="1204" version="1.1" width="675" xmlns="http://www.w3.org/2000/svg">
<ellipse cx="294" cy="22" fill="#000000" rx="8.0" ry="8.0" stroke="#000000" stroke-width="1"/>
<rect fill="#00ff" height="50" rx="52" ry="52" stroke="#00ff" stroke-width="1" width="153" x="223" y="79"/>
<rect fill="#ffffff" height="52" rx="52" ry="52" stroke="#000000" stroke-width="1" width="155" x="222" y="78"/>
<rect fill="#ffffff" height="50" rx="52" ry="52" stroke="#ffffff" stroke-width="1" width="153" x="223" y="79"/>
<text font-family="Dialog" font-size="12" x="261" y="98">
Drücke Button</text>
<text font-family="Dialog" font-size="12" x="234" y="114">
"Create Delivery Report"</text>
<rect fill="#00ff" height="50" rx="52" ry="52" stroke="#00ff" stroke-width="1" width="177" x="207" y="759"/>
<rect fill="#ffffff" height="52" rx="52" ry="52" stroke="#000000" stroke-width="1" width="179" x="206" y="758"/>
<rect fill="#ffffff" height="50" rx="52" ry="52" stroke="#ffffff" stroke-width="1" width="177" x="207" y="759"/>
<text font-family="Dialog" font-size="12" x="236" y="778">
Anlieferer-ID wird aus</text>
<text font-family="Dialog" font-size="12" x="218" y="794">
den Logindaten ausgelesen</text>
<rect fill="#00ff" height="54" rx="56" ry="56" stroke="#00ff" stroke-width="1" width="110" x="239" y="1023"/>
<rect fill="#ffffff" height="56" rx="56" ry="56" stroke="#000000" stroke-width="1" width="112" x="238" y="1022"/>
<rect fill="#ffffff" height="54" rx="56" ry="56" stroke="#ffffff" stroke-width="1" width="110" x="239" y="1023"/>
<text font-family="Dialog" font-size="12" x="257" y="1042">
Client sendet</text>
<text font-family="Dialog" font-size="12" x="250" y="1058">
Daten an Server</text>
<rect fill="#00ff" height="34" rx="36" ry="36" stroke="#00ff" stroke-width="1" width="165" x="495" y="583"/>
<rect fill="#ffffff" height="36" rx="36" ry="36" stroke="#000000" stroke-width="1" width="167" x="494" y="582"/>
<rect fill="#ffffff" height="34" rx="36" ry="36" stroke="#ffffff" stroke-width="1" width="165" x="495" y="583"/>
<text font-family="Dialog" font-size="12" x="506" y="602">
Fehlermeldung ausgeben</text>
<polyline fill="none" points="293,29 293,79" stroke="#000000" stroke-width="1"/>
<line fill="#000000" stroke="#000000" stroke-width="1" x1="286" x2="293" y1="67" y2="79"/>
<line fill="#000000" stroke="#000000" stroke-width="1" x1="300" x2="293" y1="67" y2="79"/>
<polyline fill="none" points="294,668 294,759" stroke="#000000" stroke-width="1"/>
<line fill="#000000" stroke="#000000" stroke-width="1" x1="287" x2="294" y1="747" y2="759"/>
<line fill="#000000" stroke="#000000" stroke-width="1" x1="301" x2="294" y1="747" y2="759"/>
<polygon fill="#ffffff" points="294,534 310,550 294,566 278,550" stroke="#ffffff" stroke-width="1"/>
<polygon fill="none" points="294,534 310,550 294,566 278,550" stroke="#000000" stroke-width="1"/>
<ellipse cx="298" cy="1178" fill="#000000" rx="12.0" ry="12.0" stroke="#000000" stroke-width="1"/>
<ellipse cx="298" cy="1178" fill="#ffffff" rx="11.0" ry="11.0" stroke="#ffffff" stroke-width="1"/>
<ellipse cx="297" cy="1177" fill="#000000" rx="7.5" ry="7.5" stroke="#000000" stroke-width="1"/>
<rect fill="#00ff" height="34" rx="36" ry="36" stroke="#00ff" stroke-width="1" width="148" x="221" y="503"/>
<rect fill="#ffffff" height="36" rx="36" ry="36" stroke="#000000" stroke-width="1" width="150" x="220" y="502"/>
<rect fill="#ffffff" height="34" rx="36" ry="36" stroke="#ffffff" stroke-width="1" width="148" x="221" y="503"/>
<text font-family="Dialog" font-size="12" x="232" y="522">
Button "Submit" klicken</text>
<rect fill="#00ff" height="50" rx="52" ry="52" stroke="#00ff" stroke-width="1" width="151" x="431" y="823"/>
<rect fill="#ffffff" height="52" rx="52" ry="52" stroke="#000000" stroke-width="1" width="153" x="430" y="822"/>
<rect fill="#ffffff" height="50" rx="52" ry="52" stroke="#ffffff" stroke-width="1" width="151" x="431" y="823"/>
<text font-family="Dialog" font-size="12" x="454" y="842">
Kosten berechnen,</text>
<text font-family="Dialog" font-size="12" x="442" y="858">
eintragen und anzeigen</text>
<polyline fill="none" points="333,668 430,822" stroke="#000000" stroke-width="1"/>
<line fill="#000000" stroke="#000000" stroke-width="1" x1="417" x2="430" y1="815" y2="822"/>
<line fill="#000000" stroke="#000000" stroke-width="1" x1="429" x2="430" y1="808" y2="822"/>
<polyline fill="none" points="582,583 582,166 333,166" stroke="#000000" stroke-width="1"/>
<line fill="#000000" stroke="#000000" stroke-width="1" x1="345" x2="333" y1="159" y2="166"/>
<line fill="#000000" stroke="#000000" stroke-width="1" x1="345" x2="333" y1="173" y2="166"/>
<rect fill="#000000" height="7" stroke="#000000" stroke-width="1" width="80" x="254" y="166"/>
<rect fill="#000000" height="7" stroke="#000000" stroke-width="1" width="80" x="254" y="470"/>
<rect fill="#00ff" height="34" rx="36" ry="36" stroke="#00ff" stroke-width="1" width="121" x="407" y="311"/>
<rect fill="#ffffff" height="36" rx="36" ry="36" stroke="#000000" stroke-width="1" width="123" x="406" y="310"/>
<rect fill="#ffffff" height="34" rx="36" ry="36" stroke="#ffffff" stroke-width="1" width="121" x="407" y="311"/>
<text font-family="Dialog" font-size="12" x="421" y="330">
Menge eintragen</text>
<rect fill="#00ff" height="50" rx="52" ry="52" stroke="#00ff" stroke-width="1" width="138" x="15" y="831"/>
<rect fill="#ffffff" height="52" rx="52" ry="52" stroke="#000000" stroke-width="1" width="140" x="14" y="830"/>
<rect fill="#ffffff" height="50" rx="52" ry="52" stroke="#ffffff" stroke-width="1" width="138" x="15" y="831"/>
<text font-family="Dialog" font-size="12" x="26" y="850">
Zeitstempel erstellen</text>
<text font-family="Dialog" font-size="12" x="46" y="866">
und eintragen</text>
<rect fill="#00ff" height="34" rx="36" ry="36" stroke="#00ff" stroke-width="1" width="105" x="71" y="311"/>
<rect fill="#ffffff" height="36" rx="36" ry="36" stroke="#000000" stroke-width="1" width="107" x="70" y="310"/>
<rect fill="#ffffff" height="34" rx="36" ry="36" stroke="#ffffff" stroke-width="1" width="105" x="71" y="311"/>
<text font-family="Dialog" font-size="12" x="82" y="330">
Typ auswählen</text>
<polyline fill="none" points="333,172 407,311" stroke="#000000" stroke-width="1"/>
<line fill="#000000" stroke="#000000" stroke-width="1" x1="395" x2="407" y1="303" y2="311"/>
<line fill="#000000" stroke="#000000" stroke-width="1" x1="407" x2="407" y1="297" y2="311"/>
<polyline fill="none" points="254,172 175,311" stroke="#000000" stroke-width="1"/>
<line fill="#000000" stroke="#000000" stroke-width="1" x1="174" x2="175" y1="297" y2="311"/>
<line fill="#000000" stroke="#000000" stroke-width="1" x1="187" x2="175" y1="304" y2="311"/>
<polyline fill="none" points="175,344 254,470" stroke="#000000" stroke-width="1"/>
<line fill="#000000" stroke="#000000" stroke-width="1" x1="241" x2="254" y1="463" y2="470"/>
<line fill="#000000" stroke="#000000" stroke-width="1" x1="253" x2="254" y1="456" y2="470"/>
<polyline fill="none" points="407,344 333,470" stroke="#000000" stroke-width="1"/>
<line fill="#000000" stroke="#000000" stroke-width="1" x1="333" x2="333" y1="456" y2="470"/>
<line fill="#000000" stroke="#000000" stroke-width="1" x1="345" x2="333" y1="463" y2="470"/>
<rect fill="#000000" height="7" stroke="#000000" stroke-width="1" width="80" x="254" y="662"/>
<polyline fill="none" points="294,128 294,166" stroke="#000000" stroke-width="1"/>
<line fill="#000000" stroke="#000000" stroke-width="1" x1="287" x2="294" y1="154" y2="166"/>
<line fill="#000000" stroke="#000000" stroke-width="1" x1="301" x2="294" y1="154" y2="166"/>
<rect fill="#000000" height="7" stroke="#000000" stroke-width="1" width="80" x="254" y="950"/>
<polyline fill="none" points="294,956 294,1023" stroke="#000000" stroke-width="1"/>
<line fill="#000000" stroke="#000000" stroke-width="1" x1="287" x2="294" y1="1011" y2="1023"/>
<line fill="#000000" stroke="#000000" stroke-width="1" x1="301" x2="294" y1="1011" y2="1023"/>
<polyline fill="none" points="254,668 152,831" stroke="#000000" stroke-width="1"/>
<line fill="#000000" stroke="#000000" stroke-width="1" x1="152" x2="152" y1="817" y2="831"/>
<line fill="#000000" stroke="#000000" stroke-width="1" x1="164" x2="152" y1="824" y2="831"/>
<polyline fill="none" points="152,880 254,950" stroke="#000000" stroke-width="1"/>
<line fill="#000000" stroke="#000000" stroke-width="1" x1="240" x2="254" y1="948" y2="950"/>
<line fill="#000000" stroke="#000000" stroke-width="1" x1="248" x2="254" y1="937" y2="950"/>
<polyline fill="none" points="431,872 333,950" stroke="#000000" stroke-width="1"/>
<line fill="#000000" stroke="#000000" stroke-width="1" x1="338" x2="333" y1="937" y2="950"/>
<line fill="#000000" stroke="#000000" stroke-width="1" x1="346" x2="333" y1="948" y2="950"/>
<polyline fill="none" points="294,476 294,503" stroke="#000000" stroke-width="1"/>
<line fill="#000000" stroke="#000000" stroke-width="1" x1="287" x2="294" y1="491" y2="503"/>
<line fill="#000000" stroke="#000000" stroke-width="1" x1="301" x2="294" y1="491" y2="503"/>
<polyline fill="none" points="294,566 294,662" stroke="#000000" stroke-width="1"/>
<line fill="#000000" stroke="#000000" stroke-width="1" x1="287" x2="294" y1="650" y2="662"/>
<line fill="#000000" stroke="#000000" stroke-width="1" x1="301" x2="294" y1="650" y2="662"/>
<text font-family="Dialog" font-size="12" x="293" y="619">
 [Eingaben korrekt]</text>
<polyline fill="none" points="310,550 350,598 495,598" stroke="#000000" stroke-width="1"/>
<line fill="#000000" stroke="#000000" stroke-width="1" x1="483" x2="495" y1="605" y2="598"/>
<line fill="#000000" stroke="#000000" stroke-width="1" x1="483" x2="495" y1="591" y2="598"/>
<text font-family="Dialog" font-size="12" x="337" y="577">
 [Eingaben ungültig]</text>
<polyline fill="none" points="294,808 294,950" stroke="#000000" stroke-width="1"/>
<line fill="#000000" stroke="#000000" stroke-width="1" x1="287" x2="294" y1="938" y2="950"/>
<line fill="#000000" stroke="#000000" stroke-width="1" x1="301" x2="294" y1="938" y2="950"/>
<polyline fill="none" points="298,1076 298,1166" stroke="#000000" stroke-width="1"/>
<line fill="#000000" stroke="#000000" stroke-width="1" x1="291" x2="298" y1="1154" y2="1166"/>
<line fill="#000000" stroke="#000000" stroke-width="1" x1="305" x2="298" y1="1154" y2="1166"/>
</svg>
