<?xml version="1.0" encoding="utf-8" ?>
<!DOCTYPE svg PUBLIC "-//W3C//DTD SVG 1.1//EN" "http://www.w3.org/Graphics/SVG/1.1/DTD/svg11.dtd">
<svg height="240" version="1.1" width="844" xmlns="http://www.w3.org/2000/svg">
<ellipse cx="22" cy="118" fill="#000000" rx="8.0" ry="8.0" stroke="#000000" stroke-width="1"/>
<rect fill="#00ff" height="50" rx="52" ry="52" stroke="#00ff" stroke-width="1" width="149" x="71" y="103"/>
<rect fill="#ffffff" height="52" rx="52" ry="52" stroke="#000000" stroke-width="1" width="151" x="70" y="102"/>
<rect fill="#ffffff" height="50" rx="52" ry="52" stroke="#ffffff" stroke-width="1" width="149" x="71" y="103"/>
<text font-family="Dialog" font-size="12" x="82" y="122">
Logindaten eingeben +</text>
<text font-family="Dialog" font-size="12" x="116" y="138">
Bestätigen</text>
<polyline fill="none" points="30,118 71,118" stroke="#000000" stroke-width="1"/>
<line fill="#000000" stroke="#000000" stroke-width="1" x1="59" x2="71" y1="125" y2="118"/>
<line fill="#000000" stroke="#000000" stroke-width="1" x1="59" x2="71" y1="111" y2="118"/>
<rect fill="#00ff" height="50" rx="52" ry="52" stroke="#00ff" stroke-width="1" width="224" x="247" y="103"/>
<rect fill="#ffffff" height="52" rx="52" ry="52" stroke="#000000" stroke-width="1" width="226" x="246" y="102"/>
<rect fill="#ffffff" height="50" rx="52" ry="52" stroke="#ffffff" stroke-width="1" width="224" x="247" y="103"/>
<text font-family="Dialog" font-size="12" x="258" y="122">
Abschicken der Daten an den Server </text>
<text font-family="Dialog" font-size="12" x="312" y="138">
und Überprüfung</text>
<rect fill="#00ff" height="34" rx="36" ry="36" stroke="#00ff" stroke-width="1" width="141" x="519" y="15"/>
<rect fill="#ffffff" height="36" rx="36" ry="36" stroke="#000000" stroke-width="1" width="143" x="518" y="14"/>
<rect fill="#ffffff" height="34" rx="36" ry="36" stroke="#ffffff" stroke-width="1" width="141" x="519" y="15"/>
<text font-family="Dialog" font-size="12" x="551" y="34">
Error mitteilen</text>
<rect fill="#00ff" height="34" rx="36" ry="36" stroke="#00ff" stroke-width="1" width="215" x="519" y="191"/>
<rect fill="#ffffff" height="36" rx="36" ry="36" stroke="#000000" stroke-width="1" width="217" x="518" y="190"/>
<rect fill="#ffffff" height="34" rx="36" ry="36" stroke="#ffffff" stroke-width="1" width="215" x="519" y="191"/>
<text font-family="Dialog" font-size="12" x="530" y="210">
Erfolgreiche Anmeldung bestätigen</text>
<polyline fill="none" points="486,142 519,191" stroke="#000000" stroke-width="1"/>
<line fill="#000000" stroke="#000000" stroke-width="1" x1="506" x2="519" y1="184" y2="191"/>
<line fill="#000000" stroke="#000000" stroke-width="1" x1="518" x2="519" y1="177" y2="191"/>
<text font-family="Dialog" font-size="12" x="387" y="191">
Anmeldedaten korrekt</text>
<polyline fill="none" points="519,48 219,103" stroke="#000000" stroke-width="1"/>
<line fill="#000000" stroke="#000000" stroke-width="1" x1="229" x2="219" y1="93" y2="103"/>
<line fill="#000000" stroke="#000000" stroke-width="1" x1="232" x2="219" y1="107" y2="103"/>
<polygon fill="#ffffff" points="486,110 502,126 486,142 470,126" stroke="#ffffff" stroke-width="1"/>
<polygon fill="none" points="486,110 502,126 486,142 470,126" stroke="#000000" stroke-width="1"/>
<polyline fill="none" points="486,110 519,48" stroke="#000000" stroke-width="1"/>
<line fill="#000000" stroke="#000000" stroke-width="1" x1="519" x2="519" y1="61" y2="48"/>
<line fill="#000000" stroke="#000000" stroke-width="1" x1="507" x2="519" y1="55" y2="48"/>
<text font-family="Dialog" font-size="12" x="513" y="78">
Anmeldedaten inkorrekt</text>
<polyline fill="none" points="219,126 247,126" stroke="#000000" stroke-width="1"/>
<line fill="#000000" stroke="#000000" stroke-width="1" x1="235" x2="247" y1="133" y2="126"/>
<line fill="#000000" stroke="#000000" stroke-width="1" x1="235" x2="247" y1="119" y2="126"/>
<ellipse cx="818" cy="210" fill="#000000" rx="12.0" ry="12.0" stroke="#000000" stroke-width="1"/>
<ellipse cx="818" cy="210" fill="#ffffff" rx="11.0" ry="11.0" stroke="#ffffff" stroke-width="1"/>
<ellipse cx="817" cy="209" fill="#000000" rx="7.5" ry="7.5" stroke="#000000" stroke-width="1"/>
<polyline fill="none" points="733,209 806,209" stroke="#000000" stroke-width="1"/>
<line fill="#000000" stroke="#000000" stroke-width="1" x1="794" x2="806" y1="216" y2="209"/>
<line fill="#000000" stroke="#000000" stroke-width="1" x1="794" x2="806" y1="202" y2="209"/>
</svg>
