<?xml version="1.0" encoding="utf-8" ?>
<!DOCTYPE svg PUBLIC "-//W3C//DTD SVG 1.1//EN" "http://www.w3.org/Graphics/SVG/1.1/DTD/svg11.dtd">
<svg height="684" version="1.1" width="750" xmlns="http://www.w3.org/2000/svg">
<text font-family="Dialog" font-size="12" font-weight="bold" x="19" y="419">
Operator</text>
<ellipse cx="44" cy="367" fill="#000000" rx="8.0" ry="7.5" stroke="#000000" stroke-width="1"/>
<ellipse cx="44" cy="367" fill="#ffffff" rx="7.0" ry="6.5" stroke="#ffffff" stroke-width="1"/>
<line fill="#000000" stroke="#000000" stroke-width="1" x1="44" x2="44" y1="375" y2="390"/>
<line fill="#000000" stroke="#000000" stroke-width="1" x1="34" x2="54" y1="380" y2="380"/>
<line fill="#000000" stroke="#000000" stroke-width="1" x1="44" x2="39" y1="390" y2="405"/>
<line fill="#000000" stroke="#000000" stroke-width="1" x1="44" x2="49" y1="390" y2="405"/>
<text font-family="Dialog" font-size="12" font-weight="bold" x="19" y="83">
Deliverer</text>
<ellipse cx="44" cy="31" fill="#000000" rx="8.0" ry="7.5" stroke="#000000" stroke-width="1"/>
<ellipse cx="44" cy="31" fill="#ffffff" rx="7.0" ry="6.5" stroke="#ffffff" stroke-width="1"/>
<line fill="#000000" stroke="#000000" stroke-width="1" x1="44" x2="44" y1="39" y2="54"/>
<line fill="#000000" stroke="#000000" stroke-width="1" x1="34" x2="54" y1="44" y2="44"/>
<line fill="#000000" stroke="#000000" stroke-width="1" x1="44" x2="39" y1="54" y2="69"/>
<line fill="#000000" stroke="#000000" stroke-width="1" x1="44" x2="49" y1="54" y2="69"/>
<ellipse cx="213" cy="59" fill="#000000" rx="55.0" ry="21.0" stroke="#000000" stroke-width="1"/>
<ellipse cx="213" cy="59" fill="#ffffff" rx="54.0" ry="20.0" stroke="#ffffff" stroke-width="1"/>
<text font-family="Dialog" font-size="12" font-weight="bold" x="197" y="60">
Login</text>
<polyline fill="none" points="54,44 159,53" stroke="#000000" stroke-width="1"/>
<text font-family="Dialog" font-size="12" x="77" y="29">
 </text>
<ellipse cx="429" cy="64" fill="#000000" rx="79.0" ry="26.0" stroke="#000000" stroke-width="1"/>
<ellipse cx="429" cy="64" fill="#ffffff" rx="78.0" ry="25.0" stroke="#ffffff" stroke-width="1"/>
<text font-family="Dialog" font-size="12" font-weight="bold" x="365" y="65">
Create Delivery Report</text>
<ellipse cx="655" cy="60" fill="#000000" rx="57.0" ry="22.0" stroke="#000000" stroke-width="1"/>
<ellipse cx="655" cy="60" fill="#ffffff" rx="56.0" ry="21.0" stroke="#ffffff" stroke-width="1"/>
<text font-family="Dialog" font-size="12" font-weight="bold" x="614" y="61">
Submit Report</text>
<ellipse cx="197" cy="347" fill="#000000" rx="55.0" ry="21.0" stroke="#000000" stroke-width="1"/>
<ellipse cx="197" cy="347" fill="#ffffff" rx="54.0" ry="20.0" stroke="#ffffff" stroke-width="1"/>
<text font-family="Dialog" font-size="12" font-weight="bold" x="181" y="348">
Login</text>
<polyline fill="none" points="145,354 53,367" stroke="#000000" stroke-width="1"/>
<text font-family="Dialog" font-size="12" x="65" y="341">
 </text>
<ellipse cx="355" cy="208" fill="#000000" rx="77.0" ry="26.0" stroke="#000000" stroke-width="1"/>
<ellipse cx="355" cy="208" fill="#ffffff" rx="76.0" ry="25.0" stroke="#ffffff" stroke-width="1"/>
<text font-family="Dialog" font-size="12" font-weight="bold" x="293" y="209">
View Delivery Reports</text>
<ellipse cx="423" cy="319" fill="#000000" rx="73.0" ry="25.0" stroke="#000000" stroke-width="1"/>
<ellipse cx="423" cy="319" fill="#ffffff" rx="72.0" ry="24.0" stroke="#ffffff" stroke-width="1"/>
<text font-family="Dialog" font-size="12" font-weight="bold" x="365" y="320">
View Waste Storage</text>
<ellipse cx="429" cy="422" fill="#000000" rx="71.0" ry="24.0" stroke="#000000" stroke-width="1"/>
<ellipse cx="429" cy="422" fill="#ffffff" rx="70.0" ry="23.0" stroke="#ffffff" stroke-width="1"/>
<text font-family="Dialog" font-size="12" font-weight="bold" x="374" y="423">
Create Combustion</text>
<ellipse cx="421" cy="525" fill="#000000" rx="63.0" ry="23.0" stroke="#000000" stroke-width="1"/>
<ellipse cx="421" cy="525" fill="#ffffff" rx="62.0" ry="22.0" stroke="#ffffff" stroke-width="1"/>
<text font-family="Dialog" font-size="12" font-weight="bold" x="375" y="526">
End Combustion</text>
<ellipse cx="647" cy="365" fill="#000000" rx="65.0" ry="23.0" stroke="#000000" stroke-width="1"/>
<ellipse cx="647" cy="365" fill="#ffffff" rx="64.0" ry="22.0" stroke="#ffffff" stroke-width="1"/>
<text font-family="Dialog" font-size="12" font-weight="bold" x="597" y="366">
Start Combustion</text>
<ellipse cx="663" cy="463" fill="#000000" rx="73.0" ry="25.0" stroke="#000000" stroke-width="1"/>
<ellipse cx="663" cy="463" fill="#ffffff" rx="72.0" ry="24.0" stroke="#ffffff" stroke-width="1"/>
<text font-family="Dialog" font-size="12" font-weight="bold" x="605" y="464">
View CO2 prediction</text>
<ellipse cx="423" cy="642" fill="#000000" rx="89.0" ry="28.0" stroke="#000000" stroke-width="1"/>
<ellipse cx="423" cy="642" fill="#ffffff" rx="88.0" ry="27.0" stroke="#ffffff" stroke-width="1"/>
<text font-family="Dialog" font-size="12" font-weight="bold" x="349" y="643">
View Combustion Reports</text>
<line fill="#000000" stroke="#000000" stroke-width="1" x1="350" x2="345" y1="60" y2="60"/>
<line fill="#000000" stroke="#000000" stroke-width="1" x1="340" x2="335" y1="60" y2="60"/>
<line fill="#000000" stroke="#000000" stroke-width="1" x1="330" x2="325" y1="60" y2="60"/>
<line fill="#000000" stroke="#000000" stroke-width="1" x1="320" x2="315" y1="60" y2="60"/>
<line fill="#000000" stroke="#000000" stroke-width="1" x1="310" x2="305" y1="60" y2="60"/>
<line fill="#000000" stroke="#000000" stroke-width="1" x1="300" x2="295" y1="60" y2="60"/>
<line fill="#000000" stroke="#000000" stroke-width="1" x1="290" x2="285" y1="60" y2="60"/>
<line fill="#000000" stroke="#000000" stroke-width="1" x1="280" x2="275" y1="60" y2="60"/>
<line fill="#000000" stroke="#000000" stroke-width="1" x1="270" x2="267" y1="60" y2="60"/>
<line fill="#000000" stroke="#000000" stroke-width="1" x1="279" x2="267" y1="53" y2="60"/>
<line fill="#000000" stroke="#000000" stroke-width="1" x1="279" x2="267" y1="67" y2="60"/>
<text font-family="Dialog" font-size="12" x="277" y="36">
&lt;&lt;extend&gt;&gt;</text>
<line fill="#000000" stroke="#000000" stroke-width="1" x1="598" x2="593" y1="61" y2="61"/>
<line fill="#000000" stroke="#000000" stroke-width="1" x1="588" x2="583" y1="61" y2="61"/>
<line fill="#000000" stroke="#000000" stroke-width="1" x1="578" x2="573" y1="61" y2="61"/>
<line fill="#000000" stroke="#000000" stroke-width="1" x1="568" x2="563" y1="61" y2="61"/>
<line fill="#000000" stroke="#000000" stroke-width="1" x1="558" x2="553" y1="61" y2="61"/>
<line fill="#000000" stroke="#000000" stroke-width="1" x1="548" x2="543" y1="61" y2="61"/>
<line fill="#000000" stroke="#000000" stroke-width="1" x1="538" x2="533" y1="61" y2="61"/>
<line fill="#000000" stroke="#000000" stroke-width="1" x1="528" x2="523" y1="61" y2="61"/>
<line fill="#000000" stroke="#000000" stroke-width="1" x1="518" x2="513" y1="61" y2="61"/>
<line fill="#000000" stroke="#000000" stroke-width="1" x1="508" x2="507" y1="61" y2="61"/>
<line fill="#000000" stroke="#000000" stroke-width="1" x1="519" x2="507" y1="54" y2="61"/>
<line fill="#000000" stroke="#000000" stroke-width="1" x1="519" x2="507" y1="68" y2="61"/>
<text font-family="Dialog" font-size="12" x="521" y="37">
&lt;&lt;extend&gt;&gt;</text>
<line fill="#000000" stroke="#000000" stroke-width="1" x1="327" x2="324" y1="232" y2="235"/>
<line fill="#000000" stroke="#000000" stroke-width="1" x1="320" x2="316" y1="238" y2="241"/>
<line fill="#000000" stroke="#000000" stroke-width="1" x1="312" x2="309" y1="245" y2="248"/>
<line fill="#000000" stroke="#000000" stroke-width="1" x1="305" x2="301" y1="251" y2="255"/>
<line fill="#000000" stroke="#000000" stroke-width="1" x1="297" x2="293" y1="258" y2="261"/>
<line fill="#000000" stroke="#000000" stroke-width="1" x1="290" x2="286" y1="264" y2="268"/>
<line fill="#000000" stroke="#000000" stroke-width="1" x1="282" x2="278" y1="271" y2="274"/>
<line fill="#000000" stroke="#000000" stroke-width="1" x1="275" x2="271" y1="278" y2="281"/>
<line fill="#000000" stroke="#000000" stroke-width="1" x1="267" x2="263" y1="284" y2="288"/>
<line fill="#000000" stroke="#000000" stroke-width="1" x1="259" x2="256" y1="291" y2="294"/>
<line fill="#000000" stroke="#000000" stroke-width="1" x1="252" x2="248" y1="297" y2="301"/>
<line fill="#000000" stroke="#000000" stroke-width="1" x1="244" x2="240" y1="304" y2="307"/>
<line fill="#000000" stroke="#000000" stroke-width="1" x1="237" x2="233" y1="311" y2="314"/>
<line fill="#000000" stroke="#000000" stroke-width="1" x1="229" x2="225" y1="317" y2="321"/>
<line fill="#000000" stroke="#000000" stroke-width="1" x1="222" x2="218" y1="324" y2="327"/>
<line fill="#000000" stroke="#000000" stroke-width="1" x1="222" x2="218" y1="313" y2="327"/>
<line fill="#000000" stroke="#000000" stroke-width="1" x1="231" x2="218" y1="324" y2="327"/>
<text font-family="Dialog" font-size="12" x="218" y="248">
&lt;&lt;extend&gt;&gt;</text>
<line fill="#000000" stroke="#000000" stroke-width="1" x1="354" x2="349" y1="327" y2="327"/>
<line fill="#000000" stroke="#000000" stroke-width="1" x1="344" x2="339" y1="328" y2="328"/>
<line fill="#000000" stroke="#000000" stroke-width="1" x1="334" x2="329" y1="329" y2="330"/>
<line fill="#000000" stroke="#000000" stroke-width="1" x1="324" x2="319" y1="330" y2="331"/>
<line fill="#000000" stroke="#000000" stroke-width="1" x1="314" x2="309" y1="331" y2="332"/>
<line fill="#000000" stroke="#000000" stroke-width="1" x1="304" x2="299" y1="333" y2="333"/>
<line fill="#000000" stroke="#000000" stroke-width="1" x1="294" x2="289" y1="334" y2="335"/>
<line fill="#000000" stroke="#000000" stroke-width="1" x1="284" x2="279" y1="335" y2="336"/>
<line fill="#000000" stroke="#000000" stroke-width="1" x1="274" x2="269" y1="336" y2="337"/>
<line fill="#000000" stroke="#000000" stroke-width="1" x1="264" x2="259" y1="338" y2="338"/>
<line fill="#000000" stroke="#000000" stroke-width="1" x1="254" x2="249" y1="339" y2="340"/>
<line fill="#000000" stroke="#000000" stroke-width="1" x1="260" x2="249" y1="331" y2="340"/>
<line fill="#000000" stroke="#000000" stroke-width="1" x1="261" x2="249" y1="345" y2="340"/>
<text font-family="Dialog" font-size="12" x="268" y="306">
&lt;&lt;extend&gt;&gt;</text>
<line fill="#000000" stroke="#000000" stroke-width="1" x1="377" x2="373" y1="405" y2="404"/>
<line fill="#000000" stroke="#000000" stroke-width="1" x1="368" x2="363" y1="402" y2="401"/>
<line fill="#000000" stroke="#000000" stroke-width="1" x1="358" x2="354" y1="399" y2="398"/>
<line fill="#000000" stroke="#000000" stroke-width="1" x1="349" x2="344" y1="396" y2="395"/>
<line fill="#000000" stroke="#000000" stroke-width="1" x1="339" x2="335" y1="393" y2="392"/>
<line fill="#000000" stroke="#000000" stroke-width="1" x1="330" x2="325" y1="390" y2="388"/>
<line fill="#000000" stroke="#000000" stroke-width="1" x1="320" x2="316" y1="387" y2="385"/>
<line fill="#000000" stroke="#000000" stroke-width="1" x1="311" x2="306" y1="384" y2="382"/>
<line fill="#000000" stroke="#000000" stroke-width="1" x1="301" x2="297" y1="381" y2="379"/>
<line fill="#000000" stroke="#000000" stroke-width="1" x1="292" x2="287" y1="378" y2="376"/>
<line fill="#000000" stroke="#000000" stroke-width="1" x1="282" x2="278" y1="374" y2="373"/>
<line fill="#000000" stroke="#000000" stroke-width="1" x1="273" x2="268" y1="371" y2="370"/>
<line fill="#000000" stroke="#000000" stroke-width="1" x1="263" x2="259" y1="368" y2="367"/>
<line fill="#000000" stroke="#000000" stroke-width="1" x1="254" x2="249" y1="365" y2="364"/>
<line fill="#000000" stroke="#000000" stroke-width="1" x1="244" x2="239" y1="362" y2="360"/>
<line fill="#000000" stroke="#000000" stroke-width="1" x1="252" x2="239" y1="357" y2="360"/>
<line fill="#000000" stroke="#000000" stroke-width="1" x1="248" x2="239" y1="370" y2="360"/>
<text font-family="Dialog" font-size="12" x="286" y="351">
&lt;&lt;extend&gt;&gt;</text>
<line fill="#000000" stroke="#000000" stroke-width="1" x1="594" x2="590" y1="378" y2="379"/>
<line fill="#000000" stroke="#000000" stroke-width="1" x1="585" x2="580" y1="380" y2="381"/>
<line fill="#000000" stroke="#000000" stroke-width="1" x1="575" x2="570" y1="383" y2="384"/>
<line fill="#000000" stroke="#000000" stroke-width="1" x1="565" x2="560" y1="385" y2="386"/>
<line fill="#000000" stroke="#000000" stroke-width="1" x1="556" x2="551" y1="388" y2="389"/>
<line fill="#000000" stroke="#000000" stroke-width="1" x1="546" x2="541" y1="390" y2="392"/>
<line fill="#000000" stroke="#000000" stroke-width="1" x1="536" x2="531" y1="393" y2="394"/>
<line fill="#000000" stroke="#000000" stroke-width="1" x1="526" x2="521" y1="395" y2="397"/>
<line fill="#000000" stroke="#000000" stroke-width="1" x1="517" x2="512" y1="398" y2="399"/>
<line fill="#000000" stroke="#000000" stroke-width="1" x1="507" x2="502" y1="401" y2="402"/>
<line fill="#000000" stroke="#000000" stroke-width="1" x1="497" x2="492" y1="403" y2="404"/>
<line fill="#000000" stroke="#000000" stroke-width="1" x1="487" x2="484" y1="406" y2="407"/>
<line fill="#000000" stroke="#000000" stroke-width="1" x1="493" x2="484" y1="397" y2="407"/>
<line fill="#000000" stroke="#000000" stroke-width="1" x1="497" x2="484" y1="410" y2="407"/>
<text font-family="Dialog" font-size="12" x="502" y="363">
&lt;&lt;extend&gt;&gt;</text>
<line fill="#000000" stroke="#000000" stroke-width="1" x1="598" x2="594" y1="451" y2="451"/>
<line fill="#000000" stroke="#000000" stroke-width="1" x1="589" x2="584" y1="450" y2="449"/>
<line fill="#000000" stroke="#000000" stroke-width="1" x1="579" x2="574" y1="448" y2="447"/>
<line fill="#000000" stroke="#000000" stroke-width="1" x1="569" x2="564" y1="446" y2="445"/>
<line fill="#000000" stroke="#000000" stroke-width="1" x1="559" x2="554" y1="444" y2="444"/>
<line fill="#000000" stroke="#000000" stroke-width="1" x1="549" x2="544" y1="443" y2="442"/>
<line fill="#000000" stroke="#000000" stroke-width="1" x1="539" x2="534" y1="441" y2="440"/>
<line fill="#000000" stroke="#000000" stroke-width="1" x1="529" x2="524" y1="439" y2="438"/>
<line fill="#000000" stroke="#000000" stroke-width="1" x1="519" x2="514" y1="437" y2="436"/>
<line fill="#000000" stroke="#000000" stroke-width="1" x1="509" x2="504" y1="436" y2="435"/>
<line fill="#000000" stroke="#000000" stroke-width="1" x1="499" x2="494" y1="434" y2="433"/>
<line fill="#000000" stroke="#000000" stroke-width="1" x1="505" x2="492" y1="427" y2="432"/>
<line fill="#000000" stroke="#000000" stroke-width="1" x1="502" x2="492" y1="441" y2="432"/>
<text font-family="Dialog" font-size="12" x="518" y="413">
&lt;&lt;extend&gt;&gt;</text>
<line fill="#000000" stroke="#000000" stroke-width="1" x1="394" x2="391" y1="504" y2="501"/>
<line fill="#000000" stroke="#000000" stroke-width="1" x1="387" x2="383" y1="498" y2="495"/>
<line fill="#000000" stroke="#000000" stroke-width="1" x1="379" x2="375" y1="492" y2="489"/>
<line fill="#000000" stroke="#000000" stroke-width="1" x1="371" x2="367" y1="486" y2="483"/>
<line fill="#000000" stroke="#000000" stroke-width="1" x1="363" x2="359" y1="479" y2="476"/>
<line fill="#000000" stroke="#000000" stroke-width="1" x1="355" x2="351" y1="473" y2="470"/>
<line fill="#000000" stroke="#000000" stroke-width="1" x1="347" x2="344" y1="467" y2="464"/>
<line fill="#000000" stroke="#000000" stroke-width="1" x1="340" x2="336" y1="461" y2="458"/>
<line fill="#000000" stroke="#000000" stroke-width="1" x1="332" x2="328" y1="454" y2="451"/>
<line fill="#000000" stroke="#000000" stroke-width="1" x1="324" x2="320" y1="448" y2="445"/>
<line fill="#000000" stroke="#000000" stroke-width="1" x1="316" x2="312" y1="442" y2="439"/>
<line fill="#000000" stroke="#000000" stroke-width="1" x1="308" x2="304" y1="436" y2="432"/>
<line fill="#000000" stroke="#000000" stroke-width="1" x1="300" x2="297" y1="429" y2="426"/>
<line fill="#000000" stroke="#000000" stroke-width="1" x1="293" x2="289" y1="423" y2="420"/>
<line fill="#000000" stroke="#000000" stroke-width="1" x1="285" x2="281" y1="417" y2="414"/>
<line fill="#000000" stroke="#000000" stroke-width="1" x1="277" x2="273" y1="411" y2="407"/>
<line fill="#000000" stroke="#000000" stroke-width="1" x1="269" x2="265" y1="404" y2="401"/>
<line fill="#000000" stroke="#000000" stroke-width="1" x1="261" x2="257" y1="398" y2="395"/>
<line fill="#000000" stroke="#000000" stroke-width="1" x1="253" x2="249" y1="392" y2="389"/>
<line fill="#000000" stroke="#000000" stroke-width="1" x1="246" x2="242" y1="386" y2="382"/>
<line fill="#000000" stroke="#000000" stroke-width="1" x1="238" x2="234" y1="379" y2="376"/>
<line fill="#000000" stroke="#000000" stroke-width="1" x1="230" x2="226" y1="373" y2="370"/>
<line fill="#000000" stroke="#000000" stroke-width="1" x1="222" x2="220" y1="367" y2="365"/>
<line fill="#000000" stroke="#000000" stroke-width="1" x1="233" x2="220" y1="367" y2="365"/>
<line fill="#000000" stroke="#000000" stroke-width="1" x1="225" x2="220" y1="377" y2="365"/>
<text font-family="Dialog" font-size="12" x="298" y="404">
&lt;&lt;extend&gt;&gt;</text>
<line fill="#000000" stroke="#000000" stroke-width="1" x1="402" x2="399" y1="614" y2="611"/>
<line fill="#000000" stroke="#000000" stroke-width="1" x1="396" x2="393" y1="607" y2="603"/>
<line fill="#000000" stroke="#000000" stroke-width="1" x1="390" x2="387" y1="599" y2="595"/>
<line fill="#000000" stroke="#000000" stroke-width="1" x1="384" x2="381" y1="591" y2="587"/>
<line fill="#000000" stroke="#000000" stroke-width="1" x1="378" x2="375" y1="583" y2="579"/>
<line fill="#000000" stroke="#000000" stroke-width="1" x1="372" x2="369" y1="575" y2="571"/>
<line fill="#000000" stroke="#000000" stroke-width="1" x1="366" x2="363" y1="567" y2="563"/>
<line fill="#000000" stroke="#000000" stroke-width="1" x1="360" x2="357" y1="559" y2="555"/>
<line fill="#000000" stroke="#000000" stroke-width="1" x1="354" x2="351" y1="551" y2="547"/>
<line fill="#000000" stroke="#000000" stroke-width="1" x1="348" x2="344" y1="543" y2="539"/>
<line fill="#000000" stroke="#000000" stroke-width="1" x1="341" x2="338" y1="535" y2="531"/>
<line fill="#000000" stroke="#000000" stroke-width="1" x1="335" x2="332" y1="527" y2="523"/>
<line fill="#000000" stroke="#000000" stroke-width="1" x1="329" x2="326" y1="519" y2="515"/>
<line fill="#000000" stroke="#000000" stroke-width="1" x1="323" x2="320" y1="511" y2="507"/>
<line fill="#000000" stroke="#000000" stroke-width="1" x1="317" x2="314" y1="503" y2="499"/>
<line fill="#000000" stroke="#000000" stroke-width="1" x1="311" x2="308" y1="495" y2="491"/>
<line fill="#000000" stroke="#000000" stroke-width="1" x1="305" x2="302" y1="487" y2="483"/>
<line fill="#000000" stroke="#000000" stroke-width="1" x1="299" x2="296" y1="479" y2="476"/>
<line fill="#000000" stroke="#000000" stroke-width="1" x1="293" x2="289" y1="472" y2="468"/>
<line fill="#000000" stroke="#000000" stroke-width="1" x1="286" x2="283" y1="464" y2="460"/>
<line fill="#000000" stroke="#000000" stroke-width="1" x1="280" x2="277" y1="456" y2="452"/>
<line fill="#000000" stroke="#000000" stroke-width="1" x1="274" x2="271" y1="448" y2="444"/>
<line fill="#000000" stroke="#000000" stroke-width="1" x1="268" x2="265" y1="440" y2="436"/>
<line fill="#000000" stroke="#000000" stroke-width="1" x1="262" x2="259" y1="432" y2="428"/>
<line fill="#000000" stroke="#000000" stroke-width="1" x1="256" x2="253" y1="424" y2="420"/>
<line fill="#000000" stroke="#000000" stroke-width="1" x1="250" x2="247" y1="416" y2="412"/>
<line fill="#000000" stroke="#000000" stroke-width="1" x1="244" x2="241" y1="408" y2="404"/>
<line fill="#000000" stroke="#000000" stroke-width="1" x1="238" x2="234" y1="400" y2="396"/>
<line fill="#000000" stroke="#000000" stroke-width="1" x1="231" x2="228" y1="392" y2="388"/>
<line fill="#000000" stroke="#000000" stroke-width="1" x1="225" x2="222" y1="384" y2="380"/>
<line fill="#000000" stroke="#000000" stroke-width="1" x1="219" x2="216" y1="376" y2="372"/>
<line fill="#000000" stroke="#000000" stroke-width="1" x1="213" x2="212" y1="368" y2="367"/>
<line fill="#000000" stroke="#000000" stroke-width="1" x1="224" x2="212" y1="372" y2="367"/>
<line fill="#000000" stroke="#000000" stroke-width="1" x1="213" x2="212" y1="380" y2="367"/>
<text font-family="Dialog" font-size="12" x="306" y="464">
&lt;&lt;extend&gt;&gt;</text>
</svg>
